<svg width="271" height="159" viewBox="0 0 271 159" fill="none" xmlns="http://www.w3.org/2000/svg">
<path d="M236.234 0.0624604C240.459 2.04294 241.634 5.86925 243.234 9.99996C243.693 9.35027 244.152 8.70059 244.625 8.03121C245.545 6.77824 245.545 6.77824 246.484 5.49996C247.088 4.66465 247.691 3.82934 248.312 2.96871C249.264 1.99418 249.264 1.99418 250.234 0.99996C251.554 0.99996 252.874 0.99996 254.234 0.99996C255.828 4.18821 255.336 7.62893 255.297 11.125C255.292 11.8791 255.288 12.6332 255.283 13.4101C255.271 15.2734 255.253 17.1367 255.234 19C256.143 19.4195 256.143 19.4195 257.07 19.8476C261.08 21.983 263.746 25.2667 266.234 29C266.43 31.2617 266.43 31.2617 266.359 33.6875C266.341 34.4957 266.323 35.3039 266.305 36.1367C266.27 37.059 266.27 37.059 266.234 38C266.894 38 267.554 38 268.234 38C268.234 38.66 268.234 39.32 268.234 40C268.894 40 269.554 40 270.234 40C270.721 47.1766 270.721 47.1766 268.609 50.75C262.187 56.8343 258.518 57.4535 249.574 57.5312C245.565 58.0939 244.037 59.1185 241.234 62C239.73 64.4259 239.73 64.4259 238.672 67.125C238.25 68.0982 237.829 69.0714 237.395 70.0742C236.683 71.8692 236.013 73.6825 235.418 75.5195C233.242 82.0273 229.767 86.1477 224.943 90.8903C221.579 94.2153 221.579 94.2153 221.234 99C222.649 101.516 222.649 101.516 224.547 104C225.162 104.846 225.777 105.691 226.41 106.562C227.558 108.096 228.73 109.611 229.938 111.098C231.996 114.117 231.67 116.45 231.234 120C225.777 128.065 216.386 133.184 207.234 136C207.564 138.97 207.894 141.94 208.234 145C209.327 145.268 210.421 145.536 211.547 145.812C216.628 147.449 216.628 147.449 218.234 150C218.652 152.783 218.722 154.29 217.109 156.637C214.368 158.63 212.21 158.362 208.859 158.312C207.177 158.307 207.177 158.307 205.461 158.301C201.468 157.929 198.498 157.129 195.484 154.437C193.612 150.786 193.486 147.054 193.234 143C191.254 143 189.274 143 187.234 143C185.883 136.735 185.883 136.735 187.609 133.125C189.234 131 189.234 131 190.234 130C190.192 121.814 189.395 114.169 186.855 106.367C186.188 103.822 186.127 101.62 186.234 99C184.49 99.053 184.49 99.053 182.71 99.1071C178.481 99.1034 174.733 98.3502 170.629 97.2851C169.942 97.1099 169.255 96.9347 168.547 96.7542C166.378 96.1992 164.212 95.6313 162.047 95.0625C159.87 94.5001 157.693 93.9404 155.515 93.3814C153.546 92.8746 151.579 92.3614 149.613 91.8479C146.827 91.1488 144.056 90.5293 141.234 90C141.129 90.5568 141.023 91.1137 140.914 91.6875C140.105 94.4408 138.858 96.5544 137.359 99C136.846 99.8456 136.333 100.691 135.805 101.562C134.234 104 134.234 104 132.594 106.035C131.053 108.263 130.665 109.762 130.359 112.437C130.259 113.179 130.158 113.92 130.055 114.684C130.545 120.999 136.357 125.701 140.602 129.902C144.317 132.863 146.585 132.764 151.234 133C154.234 135.187 154.234 135.187 156.234 138C156.672 141.187 156.672 141.187 156.234 144C153.627 146.607 151.761 146.239 148.207 146.266C146.234 146 146.234 146 143.234 144C141.886 143.777 140.53 143.593 139.172 143.437C132.628 142.057 128.859 137.559 124.234 133C121.936 130.838 119.616 128.701 117.297 126.562C116.463 125.783 116.463 125.783 115.612 124.987C113.233 122.772 110.946 120.808 108.234 119C108.376 117.562 108.523 116.125 108.672 114.687C108.794 113.487 108.794 113.487 108.918 112.262C109.234 110 109.234 110 110.234 107C109.059 107.598 107.883 108.196 106.672 108.812C103.972 110.165 101.266 111.449 98.4844 112.625C97.4119 113.079 96.3394 113.532 95.2344 114C94.4506 114.309 93.6669 114.619 92.8594 114.937C91.0933 115.857 91.0933 115.857 90.6445 117.68C89.4055 124.689 88.5621 135.608 92.2344 142C95.0826 143.901 97.9998 144.937 101.234 146C102.234 147 102.234 147 102.547 149.875C102.234 153 102.234 153 100.547 154.664C96.3227 157.104 91.9515 156.669 87.2344 156C83.1837 154.642 81.0686 152.405 78.9102 148.769C75.8237 142.022 73.9259 134.814 71.9219 127.687C71.655 126.745 71.388 125.802 71.113 124.83C69.7671 119.83 68.565 115.211 69.2344 110C70.8086 107.699 70.8086 107.699 72.9219 105.687C81.3941 96.8847 83.3718 88.3421 83.1758 76.4296C83.1318 74.3253 83.0799 72.2211 83.0195 70.1171C82.9137 62.4795 83.1825 54.4879 88.4219 48.5C89.02 48.005 89.6181 47.51 90.2344 47C90.2344 46.34 90.2344 45.68 90.2344 45C73.1716 41.0176 59.8914 46.743 45.2344 55C42.5545 56.4727 39.8645 57.9258 37.1719 59.375C36.5405 59.7208 35.9091 60.0665 35.2586 60.4228C26.6998 65.0377 17.5807 65.0984 8.1797 62.7734C5.11408 61.5545 3.29312 59.509 1.23438 57C0.904382 56.67 0.574382 56.34 0.234382 56C0.193453 53.667 0.191965 51.3329 0.234382 49C1.85938 48.3125 1.85938 48.3125 4.23438 48C5.03876 48.4743 5.84313 48.9487 6.67188 49.4375C12.8754 52.1583 19.5846 52.0874 26.0664 50.1562C34.3704 46.5574 41.9514 41.3627 49.5664 36.5156C62.6662 28.6412 78.6066 26.7075 93.5234 29.6484C95.8079 30.3455 98.0138 31.1237 100.234 32C104.299 33.1381 105.673 33.2391 109.609 31.5625C120.33 27.1226 133.508 30.325 144.234 33C146.727 33.5219 149.224 34.012 151.724 34.4963C153.332 34.8188 154.935 35.1592 156.534 35.5224C162.514 36.8445 168.121 37.2821 174.234 37.1875C175.161 37.1767 176.087 37.1659 177.041 37.1547C179.039 37.1266 181.038 37.0926 183.036 37.0532C186.424 36.9968 189.811 36.9893 193.199 36.9804C195.523 36.9477 197.848 36.9126 200.172 36.875C201.267 36.8778 202.362 36.8806 203.49 36.8835C209.682 36.7283 213.411 36.0633 217.901 31.654C221.344 27.3821 223.135 22.9892 224.109 17.625C225.12 12.3826 229.789 -0.138972 236.234 0.0624604Z" fill="#141413"/>
<path d="M100.234 32.0003C104.299 33.1384 105.673 33.2394 109.609 31.5628C120.33 27.123 133.508 30.3253 144.234 33.0003C146.729 33.5226 149.228 34.0132 151.73 34.4966C153.319 34.8161 154.904 35.1558 156.482 35.5225C162.956 36.9779 169.092 37.264 175.711 37.1956C176.762 37.1928 177.813 37.1899 178.897 37.187C182.218 37.1759 185.538 37.1508 188.859 37.1253C191.126 37.1152 193.393 37.1061 195.66 37.0979C201.185 37.076 206.71 37.0426 212.234 37.0003C212.234 37.3303 212.234 37.6603 212.234 38.0003C211.059 38.1859 211.059 38.1859 209.859 38.3753C207.094 38.7915 207.094 38.7915 205.234 41.0003C202.538 41.3251 199.942 41.5207 197.234 41.6253C195.991 41.6768 195.991 41.6768 194.723 41.7293C191.894 41.8344 189.064 41.9171 186.234 42.0003C184.666 42.0592 184.666 42.0592 183.065 42.1194C170.321 42.5677 158.799 42.6019 146.723 38.1917C143.194 36.9864 139.927 36.4514 136.234 36.0003C135.181 35.7276 135.181 35.7276 134.105 35.4495C125.17 33.3042 113.811 35.1415 105.234 38.0003C105.234 38.6603 105.234 39.3203 105.234 40.0003C104.335 40.3812 104.335 40.3812 103.418 40.7698C100.975 42.1465 99.9097 43.4138 98.2969 45.6878C97.7903 46.3929 97.2837 47.098 96.7617 47.8245C96.2577 48.5425 95.7537 49.2605 95.2344 50.0003C94.2762 51.3337 93.3179 52.6671 92.3594 54.0003C91.6581 54.9903 90.9569 55.9803 90.2344 57.0003C89.2444 56.0103 88.2544 55.0203 87.2344 54.0003C86.2444 55.4853 86.2444 55.4853 85.2344 57.0003C85.6735 52.1702 86.663 50.2261 90.2344 47.0003C90.2344 46.3403 90.2344 45.6803 90.2344 45.0003C73.1716 41.0179 59.8914 46.7433 45.2344 55.0003C42.5545 56.473 39.8645 57.9262 37.1719 59.3753C36.5405 59.7211 35.9091 60.0669 35.2586 60.4231C26.6998 65.038 17.5807 65.0987 8.1797 62.7737C5.11408 61.5549 3.29312 59.5094 1.23438 57.0003C0.904382 56.6703 0.574382 56.3403 0.234382 56.0003C0.193453 53.6673 0.191965 51.3332 0.234382 49.0003C1.85938 48.3128 1.85938 48.3128 4.23438 48.0003C5.03876 48.4746 5.84313 48.949 6.67188 49.4378C12.8754 52.1586 19.5846 52.0877 26.0664 50.1565C34.3704 46.5577 41.9514 41.363 49.5664 36.5159C64.3836 27.6091 84.0831 25.6265 100.234 32.0003Z" fill="#151514"/>
<path d="M138.236 72C138.896 72 139.556 72 140.236 72C137.345 82.5581 137.345 82.5581 134.236 87C137.536 87.33 140.836 87.66 144.236 88C143.356 89.4684 142.456 90.9244 141.548 92.375C141.049 93.1871 140.55 93.9992 140.036 94.8359C137.935 97.3611 136.271 97.8803 133.236 99C127.632 104.484 125.184 112.414 124.236 120C122.256 120.495 122.256 120.495 120.236 121C119.906 122.32 119.576 123.64 119.236 125C114.297 124.564 111.48 122.708 108.236 119C107.845 114.527 109.133 110.302 110.236 106C109.576 105.67 108.916 105.34 108.236 105C108.781 104.72 109.326 104.441 109.888 104.152C116.696 100.533 123.889 96.5195 128.236 90C128.896 90 129.556 90 130.236 90C130.504 89.3194 130.772 88.6388 131.048 87.9375C132.396 84.6029 133.811 81.3026 135.236 78C135.896 78 136.556 78 137.236 78C137.566 76.02 137.896 74.04 138.236 72Z" fill="#131313"/>
<path d="M144.234 33.0001C146.729 33.5225 149.228 34.013 151.73 34.4965C153.319 34.816 154.904 35.1556 156.482 35.5223C162.956 36.9778 169.092 37.2639 175.711 37.1954C176.762 37.1926 177.813 37.1898 178.897 37.1868C182.218 37.1758 185.538 37.1507 188.859 37.1251C191.126 37.1151 193.393 37.1059 195.66 37.0978C201.185 37.0758 206.71 37.0425 212.234 37.0001C212.234 37.3301 212.234 37.6601 212.234 38.0001C211.059 38.1857 211.059 38.1857 209.859 38.3751C207.094 38.7913 207.094 38.7913 205.234 41.0001C202.538 41.3249 199.942 41.5206 197.234 41.6251C195.991 41.6766 195.991 41.6766 194.723 41.7291C191.894 41.8342 189.064 41.9169 186.234 42.0001C184.666 42.0591 184.666 42.0591 183.065 42.1193C170.321 42.5675 158.799 42.6017 146.723 38.1915C143.194 36.9862 139.927 36.4513 136.234 36.0001C135.532 35.8184 134.829 35.6366 134.105 35.4493C125.17 33.304 113.811 35.1413 105.234 38.0001C105.234 38.6601 105.234 39.3201 105.234 40.0001C104.635 40.2541 104.036 40.508 103.418 40.7696C100.975 42.1463 99.9097 43.4136 98.2969 45.6876C97.7903 46.3927 97.2837 47.0978 96.7617 47.8243C96.2577 48.5423 95.7537 49.2603 95.2344 50.0001C94.2762 51.3336 93.3179 52.6669 92.3594 54.0001C91.6581 54.9901 90.9569 55.9801 90.2344 57.0001C89.2444 56.0101 88.2544 55.0201 87.2344 54.0001C86.5744 54.9901 85.9144 55.9801 85.2344 57.0001C85.5093 52.9684 85.7693 51.4312 88.7969 48.6251C89.6013 48.0889 90.4056 47.5526 91.2344 47.0001C91.2344 47.9901 91.2344 48.9801 91.2344 50.0001C91.8531 49.0217 91.8531 49.0217 92.4844 48.0235C96.0071 42.6923 99.2928 38.7026 104.633 35.1564C106.389 34.0764 106.389 34.0764 107.234 32.0001C119.368 27.6588 132.079 29.9689 144.234 33.0001Z" fill="#252525"/>
<path d="M265.234 29C265.564 29 265.894 29 266.234 29C266.234 31.97 266.234 34.94 266.234 38C266.894 38 267.554 38 268.234 38C268.234 38.66 268.234 39.32 268.234 40C268.894 40 269.554 40 270.234 40C270.85 47.2615 270.85 47.2615 267.734 51C266.909 51.66 266.084 52.32 265.234 53C265.234 52.34 265.234 51.68 265.234 51C264.574 51 263.914 51 263.234 51C263.234 51.66 263.234 52.32 263.234 53C260.924 53.33 258.614 53.66 256.234 54C256.564 52.68 256.894 51.36 257.234 50C253.082 48.8104 250.847 49.2104 246.922 50.9375C246.039 51.3178 245.156 51.698 244.246 52.0898C243.582 52.3902 242.918 52.6905 242.234 53C242.564 52.01 242.894 51.02 243.234 50C244.884 49.34 246.534 48.68 248.234 48C243.944 48 239.654 48 235.234 48C234.904 47.01 234.574 46.02 234.234 45C241.824 44.67 249.414 44.34 257.234 44C257.564 43.01 257.894 42.02 258.234 41C257.244 40.67 256.254 40.34 255.234 40C253.484 38.25 253.484 38.25 252.234 36C252.547 33.25 252.547 33.25 253.234 31C255.984 30.6875 255.984 30.6875 259.234 31C261.547 33.4375 261.547 33.4375 263.234 36C263.564 36.33 263.894 36.66 264.234 37C264.564 34.36 264.894 31.72 265.234 29Z" fill="#1E201C"/>
<path d="M98.2344 31.0001C98.2344 31.6601 98.2344 32.3201 98.2344 33.0001C100.194 34.6368 100.194 34.6368 102.234 36.0001C100.254 36.9901 100.254 36.9901 98.2344 38.0001C98.2344 37.3401 98.2344 36.6801 98.2344 36.0001C95.1112 35.6287 91.9857 35.2813 88.8594 34.9376C87.5542 34.7819 87.5542 34.7819 86.2227 34.6231C78.3381 33.7763 70.4298 33.5966 63.0469 36.8751C62.2206 37.2283 61.3943 37.5815 60.543 37.9454C59.1316 38.5902 57.7261 39.2485 56.332 39.9298C51.6937 42.1385 48.2667 42.2649 43.2344 42.0001C55.8597 27.179 80.7925 25.9881 98.2344 31.0001Z" fill="#252525"/>
<path d="M2.23438 48C3.90448 48.658 5.57045 49.3265 7.23438 50C9.43352 50.4073 11.6435 50.7594 13.8594 51.0625C18.238 51.6687 22.0445 52.6034 26.2344 54C26.5644 54.99 26.8944 55.98 27.2344 57C26.5744 57.66 25.9144 58.32 25.2344 59C25.8944 59.66 26.5544 60.32 27.2344 61C24.882 61.3936 22.5294 61.765 20.1719 62.125C19.5151 62.2371 18.8583 62.3493 18.1816 62.4648C13.341 63.1802 9.80149 62.7071 5.23438 61C2.29688 58.8125 2.29688 58.8125 0.234375 56C-0.078125 52.1875 -0.078125 52.1875 0.234375 49C0.894375 48.67 1.55437 48.34 2.23438 48Z" fill="#161616"/>
<path d="M160.234 88C163.987 88.4938 167.454 89.3508 171.047 90.5C175.797 91.9776 180.282 92.6006 185.234 93C185.234 93.99 185.234 94.98 185.234 96C185.894 96 186.554 96 187.234 96C187.564 94.02 187.894 92.04 188.234 90C188.894 90 189.554 90 190.234 90C190.573 92.0407 190.905 94.0826 191.234 96.125C191.42 97.262 191.606 98.3989 191.797 99.5703C192.207 102.789 192.46 105.763 192.234 109C190.234 110.875 190.234 110.875 188.234 112C185.949 103.571 185.949 103.571 186.234 99C185.121 99.0516 184.007 99.1031 182.859 99.1562C177.735 99.1562 173.136 97.8928 168.234 96.5C167.364 96.2615 166.494 96.023 165.598 95.7773C163.474 95.1939 161.353 94.6013 159.234 94C159.564 92.02 159.894 90.04 160.234 88Z" fill="#1A1A19"/>
<path d="M225.235 86C226.555 86.33 227.875 86.66 229.235 87C226.265 89.97 223.295 92.94 220.235 96C222.506 101.679 225.654 105.4 229.532 110.062C231.235 113 231.235 113 230.501 115.875C230.083 116.576 229.665 117.278 229.235 118C228.965 117.415 228.696 116.83 228.418 116.227C227.234 113.999 225.945 112.279 224.297 110.375C223.793 109.785 223.289 109.194 222.77 108.586C221.123 106.772 221.123 106.772 218.235 105C216.617 102.36 216.235 101.16 216.235 98C216.895 98 217.555 98 218.235 98C218.235 97.34 218.235 96.68 218.235 96C217.059 96.7425 217.059 96.7425 215.86 97.5C213.235 99 213.235 99 211.235 99C211.114 99.5569 210.993 100.114 210.868 100.688C209.742 105.816 208.53 110.912 207.235 116C208.555 116.33 209.875 116.66 211.235 117C210.905 118.32 210.575 119.64 210.235 121C205.36 122 205.36 122 204.235 122C203.118 116.541 203.508 112.859 205.172 107.562C205.553 106.326 205.933 105.09 206.325 103.816C206.625 102.887 206.925 101.958 207.235 101C207.895 101 208.555 101 209.235 101C209.324 100.417 209.413 99.8347 209.504 99.2344C210.888 95.001 214.613 92.3946 218.235 90C221.735 89.5625 221.735 89.5625 224.235 90C224.565 88.68 224.895 87.36 225.235 86Z" fill="#212121"/>
<path d="M135.234 75C136.43 78.5873 135.676 79.8871 134.129 83.2148C132.945 85.5779 131.747 87.8294 130.234 90C129.574 90 128.914 90 128.234 90C128.002 90.5762 127.77 91.1524 127.531 91.7461C124.039 97.8163 116.603 102.319 110.234 105C110.234 105.66 110.234 106.32 110.234 107C105.653 109.395 101.207 111.508 96.2344 113C95.5744 111.68 94.9144 110.36 94.2344 109C96.2543 107.749 98.2752 106.499 100.297 105.25C101.196 104.694 101.196 104.694 102.112 104.127C105.035 102.327 107.963 100.567 110.984 98.9375C116.653 95.558 122.021 91.742 126.172 86.5625C126.853 85.7169 127.533 84.8713 128.234 84C128.894 84 129.554 84 130.234 84C130.502 83.4431 130.771 82.8863 131.047 82.3125C132.336 79.8029 133.764 77.4067 135.234 75Z" fill="#222221"/>
<path d="M236.297 0.0626022C238.773 1.26066 239.261 2.4844 240.234 5.0001C238.584 5.3301 236.934 5.6601 235.234 6.0001C235.564 8.6401 235.894 11.2801 236.234 14.0001C235.244 14.0001 234.254 14.0001 233.234 14.0001C233.564 18.9501 233.894 23.9001 234.234 29.0001C229.234 28.0001 229.234 28.0001 227.957 26.2267C227.2 23.8937 226.864 21.8181 226.672 19.3751C226.416 16.0634 226.416 16.0634 225.234 13.0001C226.344 10.7228 226.344 10.7228 227.984 8.0626C228.515 7.18733 229.047 6.31206 229.594 5.41026C233.296 -0.0283375 233.296 -0.0283372 236.297 0.0626022Z" fill="#1F1C1A"/>
<path d="M138.234 72C138.894 72 139.554 72 140.234 72C137.344 82.5581 137.344 82.5581 134.234 87C137.534 87.33 140.834 87.66 144.234 88C142.859 90.5 142.859 90.5 141.234 93C140.574 93 139.914 93 139.234 93C138.904 92.34 138.574 91.68 138.234 91C136.773 91.2286 135.315 91.4837 133.859 91.75C133.047 91.8892 132.235 92.0284 131.398 92.1719C128.593 93.2456 128.432 94.3237 127.234 97C125.5 98.5977 125.5 98.5977 123.484 100.062C122.421 100.836 122.421 100.836 121.336 101.625C119.234 103 119.234 103 115.859 104.562C113.02 105.798 113.02 105.798 111.859 108.688C111.653 109.451 111.447 110.214 111.234 111C110.904 111 110.574 111 110.234 111C110.234 109.35 110.234 107.7 110.234 106C109.574 105.67 108.914 105.34 108.234 105C108.78 104.72 109.325 104.441 109.887 104.152C116.695 100.533 123.888 96.5195 128.234 90C128.894 90 129.554 90 130.234 90C130.503 89.3194 130.771 88.6388 131.047 87.9375C132.395 84.6029 133.81 81.3026 135.234 78C135.894 78 136.554 78 137.234 78C137.564 76.02 137.894 74.04 138.234 72Z" fill="#060606"/>
<path d="M81.2333 93C81.8933 93 82.5533 93 83.2333 93C81.3062 103.558 81.3062 103.558 79.2333 108C78.5733 108 77.9133 108 77.2333 108C76.5733 113.28 75.9133 118.56 75.2333 124C73.9133 124 72.5933 124 71.2333 124C69.6671 119.204 68.3603 115.063 69.2333 110C71.0704 107.593 73.0794 105.463 75.1864 103.289C78.0262 100.113 79.5369 96.8875 81.2333 93Z" fill="#191919"/>
<path d="M218.236 96C218.236 96.66 218.236 97.32 218.236 98C217.494 98.4744 216.751 98.9488 215.986 99.4375C211.937 103.211 210.841 107.801 209.236 113C209.896 113 210.556 113 211.236 113C211.236 113.66 211.236 114.32 211.236 115C213.711 115.99 213.711 115.99 216.236 117C216.236 117.66 216.236 118.32 216.236 119C214.976 119.92 213.677 120.787 212.361 121.625C209.119 123.939 207.663 125.472 206.736 129.375C206.571 130.571 206.406 131.768 206.236 133C207.226 133.33 208.216 133.66 209.236 134C208.576 134.66 207.916 135.32 207.236 136C206.588 138.571 206.588 138.571 206.236 141C205.576 141 204.916 141 204.236 141C204.121 133.59 204.324 126.358 205.236 119C205.566 119.99 205.896 120.98 206.236 122C207.556 121.34 208.876 120.68 210.236 120C210.236 119.01 210.236 118.02 210.236 117C209.246 116.67 208.256 116.34 207.236 116C206.906 116.66 206.576 117.32 206.236 118C209.336 100.529 209.336 100.529 213.799 96.9375C216.236 96 216.236 96 218.236 96Z" fill="#0F0F0F"/>
<path d="M137.234 135C138.863 135.228 140.487 135.483 142.109 135.75C143.467 135.959 143.467 135.959 144.852 136.172C147.234 137 147.234 137 148.555 139.078C148.779 139.712 149.003 140.347 149.234 141C149.564 140.67 149.894 140.34 150.234 140C151.554 140.66 152.874 141.32 154.234 142C153.574 143.32 152.914 144.64 152.234 146C146.609 146.25 146.609 146.25 143.234 144C140.93 143.482 138.627 143.118 136.293 142.758C134.234 142 134.234 142 132.957 139.93C132.719 139.293 132.48 138.656 132.234 138C133.884 138 135.534 138 137.234 138C137.234 137.01 137.234 136.02 137.234 135Z" fill="#0F0F0F"/>
<path d="M89.2344 59C89.2926 62.7291 89.3281 66.4581 89.3594 70.1875C89.3761 71.2426 89.3929 72.2977 89.4102 73.3848C89.4166 74.4063 89.423 75.4279 89.4297 76.4805C89.4402 77.4179 89.4506 78.3552 89.4614 79.321C89.2085 82.3053 88.6962 84.3812 87.2344 87C85.9144 87.33 84.5944 87.66 83.2344 88C83.2344 79.09 83.2344 70.18 83.2344 61C87.2344 59 87.2344 59 89.2344 59Z" fill="#1A1A1A"/>
<path d="M248.234 6C248.234 9.86696 246.815 12.5088 245.234 16C244.244 16 243.254 16 242.234 16C242.11 17.2375 241.986 18.475 241.859 19.75C240.935 26.6549 240.935 26.6549 237.722 29.1953C235.908 30.3834 234.288 31.3034 232.234 32C229.296 31.25 229.296 31.25 227.234 30C227.234 29.34 227.234 28.68 227.234 28C226.574 28 225.914 28 225.234 28C224.376 24.5685 224.181 22.3674 225.234 19C225.574 17.3348 225.909 15.6684 226.234 14C226.564 14 226.894 14 227.234 14C227.894 18.29 228.554 22.58 229.234 27C230.884 27.33 232.534 27.66 234.234 28C234.564 26.68 234.894 25.36 235.234 24C236.554 24 237.874 24 239.234 24C239.986 20.3454 240.634 16.6827 241.234 13C242.224 13 243.214 13 244.234 13C244.337 12.2162 244.44 11.4325 244.546 10.625C245.234 8 245.234 8 248.234 6Z" fill="#060505"/>
<path d="M212.234 36.9999C212.234 37.3299 212.234 37.6599 212.234 37.9999C211.451 38.1237 210.667 38.2474 209.859 38.3749C207.094 38.7911 207.094 38.7911 205.234 40.9999C202.333 41.317 199.52 41.5166 196.609 41.6249C195.337 41.6808 195.337 41.6808 194.04 41.7377C172.017 42.6304 172.017 42.6304 162.234 40.9999C162.564 40.3399 162.894 39.6799 163.234 38.9999C163.943 39.0104 164.653 39.0209 165.383 39.0317C183.395 39.2865 183.395 39.2865 201.277 37.4453C204.991 36.886 208.489 36.8471 212.234 36.9999Z" fill="#262626"/>
<path d="M188.234 90C188.894 90 189.554 90 190.234 90C190.573 92.0407 190.905 94.0826 191.234 96.125C191.42 97.262 191.606 98.3989 191.797 99.5703C192.207 102.789 192.46 105.763 192.234 109C190.234 110.875 190.234 110.875 188.234 112C185.949 103.571 185.949 103.571 186.234 99C183.594 99 180.954 99 178.234 99C178.894 98.01 179.554 97.02 180.234 96C183.859 95.8125 183.859 95.8125 187.234 96C187.564 94.02 187.894 92.04 188.234 90Z" fill="#222222"/>
<path d="M218.234 96C218.794 96.7013 219.353 97.4025 219.93 98.125C221.493 100.075 223.071 102.012 224.664 103.938C225.471 104.948 226.278 105.959 227.109 107C227.932 108.011 228.754 109.021 229.602 110.062C231.234 113 231.234 113 230.492 115.875C230.077 116.576 229.662 117.278 229.234 118C228.83 117.122 228.83 117.122 228.418 116.227C227.234 113.999 225.945 112.279 224.297 110.375C223.793 109.785 223.289 109.194 222.77 108.586C221.123 106.772 221.123 106.772 218.234 105C216.617 102.36 216.234 101.16 216.234 98C216.894 98 217.554 98 218.234 98C218.234 97.34 218.234 96.68 218.234 96Z" fill="#2C2C2B"/>
<path d="M204.234 37.0002C204.234 37.3302 204.234 37.6602 204.234 38.0002C195.366 39.5473 186.735 40.1937 177.734 40.1877C176.338 40.1886 176.338 40.1886 174.914 40.1896C169.921 40.15 165.156 39.8452 160.234 39.0002C160.234 38.6702 160.234 38.3402 160.234 38.0002C174.908 37.3591 189.546 36.8294 204.234 37.0002Z" fill="#151515"/>
<path d="M2.23438 48C3.90448 48.658 5.57045 49.3265 7.23438 50C9.43352 50.4073 11.6435 50.7594 13.8594 51.0625C18.238 51.6687 22.0445 52.6034 26.2344 54C21.7354 56.9993 17.5111 56.584 12.2344 56C8.02629 54.7364 4.1553 52.9605 0.234375 51C0.234375 50.34 0.234375 49.68 0.234375 49C0.894375 48.67 1.55437 48.34 2.23438 48Z" fill="#313131"/>
<path d="M136.234 96C136.894 96.66 137.554 97.32 138.234 98C137.741 98.6175 137.247 99.2349 136.738 99.8711C132.416 105.585 130.125 109.779 130.234 117C130.234 117.66 130.234 118.32 130.234 119C129.244 118.67 128.254 118.34 127.234 118C127.255 117.072 127.276 116.144 127.297 115.188C127.392 111.977 127.392 111.977 126.234 109C131.568 98.3333 131.568 98.3333 136.234 96Z" fill="#2B292A"/>
<path d="M234.234 45C241.824 45 249.414 45 257.234 45C256.244 45.495 256.244 45.495 255.234 46C255.234 46.66 255.234 47.32 255.234 48C250.944 49.65 246.654 51.3 242.234 53C242.564 52.01 242.894 51.02 243.234 50C244.884 49.34 246.534 48.68 248.234 48C243.944 48 239.654 48 235.234 48C234.904 47.01 234.574 46.02 234.234 45Z" fill="#222221"/>
<path d="M127.234 120C132.081 121.278 134.684 122.992 138.109 126.625C138.891 127.442 139.672 128.26 140.477 129.102C141.347 130.041 141.347 130.041 142.234 131C141.904 131.99 141.574 132.98 141.234 134C137.897 132.827 135.46 131.811 133.234 129C133.234 128.34 133.234 127.68 133.234 127C132.574 127 131.914 127 131.234 127C129.109 125.188 129.109 125.188 127.234 123C127.234 122.01 127.234 121.02 127.234 120Z" fill="#262624"/>
<path d="M90.2332 112C91.8832 112.33 93.5332 112.66 95.2332 113C94.2432 114.485 94.2432 114.485 93.2332 116C92.5732 116 91.9132 116 91.2332 116C90.0834 120.09 90.1223 124.032 90.1707 128.25C90.1752 128.995 90.1797 129.74 90.1844 130.508C90.1961 132.339 90.214 134.169 90.2332 136C87.6439 133.411 87.8592 131.973 87.6082 128.375C87.5334 127.372 87.4587 126.369 87.3816 125.336C87.3082 124.18 87.3082 124.18 87.2332 123C86.9032 124.65 86.5732 126.3 86.2332 128C85.9032 128 85.5732 128 85.2332 128C84.7123 122.895 84.6306 119.203 87.7332 114.938C88.5582 113.968 89.3832 112.999 90.2332 112Z" fill="#292929"/>
<path d="M58.2344 33C58.5644 34.65 58.8944 36.3 59.2344 38C53.6519 41.3258 49.7375 42.4645 43.2344 42C46.6129 38.0339 52.7738 33 58.2344 33Z" fill="#2A2A2A"/>
<path d="M224.234 66C224.894 66 225.554 66 226.234 66C228.097 71.5867 228.216 77.4108 226.117 82.9453C224.902 85.3555 223.635 87.6934 222.234 90C220.914 89.67 219.594 89.34 218.234 89C218.584 88.4779 218.933 87.9559 219.293 87.418C223.654 80.3636 224.234 74.1536 224.234 66Z" fill="#1E1E1E"/>
<path d="M155.234 136C156.589 138.709 156.299 141.009 156.234 144C154.254 144.99 154.254 144.99 152.234 146C152.564 144.68 152.894 143.36 153.234 142C152.244 141.34 151.254 140.68 150.234 140C150.564 140.99 150.894 141.98 151.234 143C150.244 142.67 149.254 142.34 148.234 142C147.672 140.125 147.672 140.125 147.234 138C146.574 137.01 145.914 136.02 145.234 135C149.262 133.849 151.515 134.037 155.234 136Z" fill="#212121"/>
<path d="M106.234 103C106.894 103 107.554 103 108.234 103C108.234 103.99 108.234 104.98 108.234 106C108.894 106.33 109.554 106.66 110.234 107C105.653 109.395 101.207 111.508 96.2344 113C95.5744 111.68 94.9144 110.36 94.2344 109C97.7983 106.694 101.198 105.284 105.234 104C105.564 103.67 105.894 103.34 106.234 103Z" fill="#252525"/>
<path d="M236.297 0.0625846C238.773 1.26064 239.261 2.48438 240.234 5.00008C238.584 5.33008 236.934 5.66008 235.234 6.00008C235.564 8.64008 235.894 11.2801 236.234 14.0001C234.914 13.6701 233.594 13.3401 232.234 13.0001C232.234 11.3501 232.234 9.70008 232.234 8.00008C231.574 8.00008 230.914 8.00008 230.234 8.00008C230.602 5.28332 230.962 3.38945 232.547 1.12508C234.234 8.46386e-05 234.234 8.46274e-05 236.297 0.0625846Z" fill="#1A1414"/>
<path d="M229.234 6C229.564 6.66 229.894 7.32 230.234 8C230.894 8 231.554 8 232.234 8C232.234 11.3 232.234 14.6 232.234 18C231.574 17.34 230.914 16.68 230.234 16C229.574 17.98 228.914 19.96 228.234 22C227.904 22 227.574 22 227.234 22C227.09 20.8862 226.946 19.7725 226.797 18.625C226.451 15.1786 226.451 15.1786 225.234 13C226.012 11.2734 226.012 11.2734 227.172 9.375C227.852 8.26125 228.533 7.1475 229.234 6Z" fill="#232120"/>
<path d="M250.234 1C251.554 1 252.874 1 254.234 1C255.828 4.18825 255.336 7.62897 255.297 11.125C255.292 11.8791 255.288 12.6332 255.283 13.4102C255.271 15.2735 255.253 17.1367 255.234 19C252.234 17 252.234 17 251.723 14.8359C251.636 13.6178 251.636 13.6178 251.547 12.375C251.481 11.5577 251.415 10.7405 251.348 9.89844C251.31 9.27195 251.273 8.64547 251.234 8C249.914 8 248.594 8 247.234 8C247.234 4.46014 247.816 3.50485 250.234 1Z" fill="#2F2F2F"/>
<path d="M205.233 107C206.223 107.33 207.213 107.66 208.233 108C207.903 110.64 207.573 113.28 207.233 116C208.553 116.33 209.873 116.66 211.233 117C210.903 118.32 210.573 119.64 210.233 121C205.358 122 205.358 122 204.233 122C203.047 116.307 203.571 112.574 205.233 107Z" fill="#232222"/>
<path d="M205.236 119C205.566 119.99 205.896 120.98 206.236 122C207.556 121.67 208.876 121.34 210.236 121C209.947 121.495 209.659 121.99 209.361 122.5C207.823 125.918 207.088 129.351 206.236 133C207.226 133.33 208.216 133.66 209.236 134C208.576 134.66 207.916 135.32 207.236 136C206.588 138.571 206.588 138.571 206.236 141C205.576 141 204.916 141 204.236 141C204.121 133.59 204.324 126.358 205.236 119Z" fill="#050505"/>
<path d="M210.234 148C212.901 148.667 215.568 149.333 218.234 150C218.597 154.474 218.597 154.474 216.984 156.812C215.234 158 215.234 158 211.234 158C211.109 155.625 211.109 155.625 211.234 153C211.894 152.34 212.554 151.68 213.234 151C212.244 150.01 211.254 149.02 210.234 148ZM210.234 150C210.894 150 211.554 150 212.234 150C211.904 150.66 211.574 151.32 211.234 152C210.904 151.34 210.574 150.68 210.234 150Z" fill="#212120"/>
<path d="M191.234 120C194.231 122.996 193.959 126.585 194.359 130.625C194.446 131.427 194.532 132.229 194.621 133.055C194.833 135.036 195.035 137.018 195.234 139C194.244 139.33 193.254 139.66 192.234 140C191.574 139.34 190.914 138.68 190.234 138C190.609 136.062 190.609 136.062 191.234 134C191.234 133.01 191.234 132.02 191.234 131C191.234 127.333 191.234 123.667 191.234 120Z" fill="#060606"/>
<path d="M214.234 37C214.234 37.66 214.234 38.32 214.234 39C213.022 39.5801 213.022 39.5801 211.785 40.1719C210.182 40.953 210.182 40.953 208.547 41.75C207.491 42.2605 206.435 42.7709 205.348 43.2969C202.334 44.9453 199.841 46.775 197.234 49C196.574 48.67 195.914 48.34 195.234 48C195.705 47.6017 196.175 47.2034 196.66 46.793C197.283 46.2632 197.905 45.7334 198.547 45.1875C199.162 44.6654 199.777 44.1434 200.41 43.6055C202.092 42.1252 203.707 40.6398 205.234 39C205.234 38.67 205.234 38.34 205.234 38C211.984 37 211.984 37 214.234 37Z" fill="#060606"/>
<path d="M81.2344 93C81.8944 93 82.5544 93 83.2344 93C82.9341 98.8546 80.236 103.795 76.2344 108C73.5312 108.762 73.5312 108.762 71.2344 109C71.8145 108.273 71.8145 108.273 72.4062 107.531C76.0138 102.888 78.7584 98.3329 81.2344 93Z" fill="#272728"/>
<path d="M94.2344 144C99.9844 144.75 99.9844 144.75 102.234 147C102.359 150.125 102.359 150.125 102.234 153C100.254 153.99 100.254 153.99 98.2344 155C98.4613 154.072 98.6881 153.144 98.9219 152.188C99.5902 149.064 99.5902 149.064 97.9219 147.25C97.365 146.838 96.8081 146.425 96.2344 146C95.5744 145.34 94.9144 144.68 94.2344 144ZM89.2344 145C90.8844 145 92.5344 145 94.2344 145C94.5644 145.66 94.8944 146.32 95.2344 147C93.2544 147 91.2744 147 89.2344 147C89.2344 146.34 89.2344 145.68 89.2344 145Z" fill="#1F1F1F"/>
<path d="M253.234 31C255.234 30.9575 257.235 30.9592 259.234 31C260.234 32 260.234 32 260.297 35.5625C260.276 36.6969 260.256 37.8313 260.234 39C259.574 39 258.914 39 258.234 39C257.904 37.02 257.574 35.04 257.234 33C256.904 34.98 256.574 36.96 256.234 39C254.914 38.01 253.594 37.02 252.234 36C252.564 34.35 252.894 32.7 253.234 31Z" fill="#536C3C"/>
<path d="M84.2344 72C84.5644 72 84.8944 72 85.2344 72C85.5644 74.64 85.8944 77.28 86.2344 80C86.5644 77.36 86.8944 74.72 87.2344 72C87.5644 72 87.8944 72 88.2344 72C89.8375 83.1572 89.8375 83.1572 87.2344 87C85.9144 87.33 84.5944 87.66 83.2344 88C83.5644 82.72 83.8944 77.44 84.2344 72Z" fill="#3D3D3D"/>
<path d="M187.234 94C187.564 94 187.894 94 188.234 94C188.458 95.5813 188.662 97.1652 188.859 98.75C188.975 99.6317 189.091 100.513 189.211 101.422C189.234 104 189.234 104 187.234 108C186.904 105.03 186.574 102.06 186.234 99C183.594 99 180.954 99 178.234 99C178.894 98.01 179.554 97.02 180.234 96C183.859 95.8125 183.859 95.8125 187.234 96C187.234 95.34 187.234 94.68 187.234 94Z" fill="#282827"/>
<path d="M160.234 88C163.953 88.5071 166.969 89.1161 170.234 91C170.234 91.66 170.234 92.32 170.234 93C167.859 93.125 167.859 93.125 165.234 93C164.574 92.34 163.914 91.68 163.234 91C163.564 92.32 163.894 93.64 164.234 95C162.584 94.67 160.934 94.34 159.234 94C159.564 92.02 159.894 90.04 160.234 88Z" fill="#282926"/>
<path d="M92.2344 31C94.2144 31 96.1944 31 98.2344 31C98.2344 31.66 98.2344 32.32 98.2344 33C100.194 34.6368 100.194 34.6368 102.234 36C100.254 36.99 100.254 36.99 98.2344 38C98.2344 37.34 98.2344 36.68 98.2344 36C95.9244 35.67 93.6144 35.34 91.2344 35C91.5644 33.68 91.8944 32.36 92.2344 31Z" fill="#222222"/>
<path d="M221.234 26C221.564 26.66 221.894 27.32 222.234 28C222.894 28 223.554 28 224.234 28C223.904 29.32 223.574 30.64 223.234 32C222.244 32 221.254 32 220.234 32C219.904 32.99 219.574 33.98 219.234 35C218.244 35.33 217.254 35.66 216.234 36C216.234 36.66 216.234 37.32 216.234 38C214.914 37.34 213.594 36.68 212.234 36C212.716 35.6133 213.199 35.2266 213.695 34.8281C214.327 34.3073 214.959 33.7866 215.609 33.25C216.549 32.4843 216.549 32.4843 217.508 31.7031C219.317 29.918 220.236 28.3205 221.234 26Z" fill="#3A3A3A"/>
<path d="M218.234 96C218.234 96.66 218.234 97.32 218.234 98C217.492 98.5156 216.749 99.0312 215.984 99.5625C212.718 102.457 211.67 105.066 210.129 109.074C209.234 111 209.234 111 207.234 112C207.634 110.246 208.055 108.497 208.484 106.75C208.716 105.775 208.948 104.801 209.188 103.797C210.723 99.694 213.538 96 218.234 96Z" fill="#070708"/>
<path d="M82.2344 100C83.4747 103.721 82.8063 104.995 81.4844 108.625C81.1389 109.607 80.7934 110.59 80.4375 111.602C79.2344 114 79.2344 114 76.2344 115C76.5644 112.69 76.8944 110.38 77.2344 108C77.8944 108 78.5544 108 79.2344 108C79.5438 106.866 79.8531 105.731 80.1719 104.562C81.2344 101 81.2344 101 82.2344 100Z" fill="#070707"/>
<path d="M191.234 78C192.957 82.0845 191.307 85.3697 189.797 89.25C189.554 89.8997 189.311 90.5494 189.061 91.2188C188.462 92.8162 187.849 94.4086 187.234 96C186.904 96 186.574 96 186.234 96C186.521 89 187.738 84.0897 191.234 78Z" fill="#040404"/>
<path d="M243.234 18C247.552 18.508 251.267 19.1968 255.234 21C255.234 20.34 255.234 19.68 255.234 19C256.224 19.33 257.214 19.66 258.234 20C257.244 20.495 257.244 20.495 256.234 21C256.234 21.66 256.234 22.32 256.234 23C254.584 23.33 252.934 23.66 251.234 24C251.234 23.34 251.234 22.68 251.234 22C248.594 21.34 245.954 20.68 243.234 20C243.234 19.34 243.234 18.68 243.234 18Z" fill="#2F302C"/>
<path d="M226.234 80C227.224 80.66 228.214 81.32 229.234 82C229.894 81.67 230.554 81.34 231.234 81C231.047 82.875 231.047 82.875 230.234 85C228.582 85.7021 226.915 86.3697 225.234 87C224.904 87.99 224.574 88.98 224.234 90C223.574 89.67 222.914 89.34 222.234 89C223.554 86.03 224.874 83.06 226.234 80Z" fill="#0D0D0D"/>
<path d="M29.2344 61C27.4386 63.2993 26.5822 63.9513 23.6406 64.3633C22.202 64.3382 22.202 64.3382 20.7344 64.3125C19.7753 64.3087 18.8162 64.3048 17.8281 64.3008C15.2344 64 15.2344 64 12.2344 62C23.756 60.852 23.756 60.852 29.2344 61Z" fill="#0F0F0F"/>
<path d="M225.234 112C226.224 112.33 227.214 112.66 228.234 113C228.234 113.99 228.234 114.98 228.234 116C228.894 115.34 229.554 114.68 230.234 114C230.564 114.33 230.894 114.66 231.234 115C230.947 117.339 230.615 119.674 230.234 122C228.914 121.67 227.594 121.34 226.234 121C225.904 118.03 225.574 115.06 225.234 112Z" fill="#1E1E1E"/>
<path d="M95.2344 41C95.8944 41 96.5544 41 97.2344 41C95.5926 45.7761 92.9689 49.7938 90.2344 54C89.0696 50.5058 89.6261 48.5736 90.2344 45C89.9044 44.34 89.5744 43.68 89.2344 43C91.2144 43 93.1944 43 95.2344 43C95.2344 42.34 95.2344 41.68 95.2344 41Z" fill="#0D0C0D"/>
<path d="M91.2332 114C91.5632 114.66 91.8932 115.32 92.2332 116C91.9264 116.531 91.6196 117.062 91.3035 117.609C89.7448 121.091 90.0224 124.512 90.1082 128.25C90.1218 129.368 90.1218 129.368 90.1356 130.508C90.159 132.339 90.1949 134.169 90.2332 136C87.4515 133.218 87.6292 130.428 87.3582 126.688C87.286 126.023 87.2139 125.358 87.1395 124.674C86.8559 120.901 87.0982 119.202 89.2254 116.02C89.888 115.353 90.5506 114.687 91.2332 114Z" fill="#3A393A"/>
<path d="M108.234 103C108.234 103.99 108.234 104.98 108.234 106C108.894 106.33 109.554 106.66 110.234 107C107.484 108.625 107.484 108.625 104.234 110C101.859 109.188 101.859 109.188 100.234 108C101.779 104.91 104.747 103 108.234 103Z" fill="#2F2F2F"/>
<path d="M212.234 37.0001C212.234 37.3301 212.234 37.6601 212.234 38.0001C211.451 38.1238 210.667 38.2476 209.859 38.3751C207.094 38.7913 207.094 38.7913 205.234 41.0001C202.109 41.1251 202.109 41.1251 199.234 41.0001C199.234 40.6701 199.234 40.3401 199.234 40.0001C197.584 39.6701 195.934 39.3401 194.234 39.0001C194.234 38.6701 194.234 38.3401 194.234 38.0001C200.27 37.3075 206.158 36.8876 212.234 37.0001Z" fill="#343434"/>
<path d="M192.234 112C192.564 112 192.894 112 193.234 112C193.564 116.29 193.894 120.58 194.234 125C193.574 124.01 192.914 123.02 192.234 122C191.244 122.495 191.244 122.495 190.234 123C190.375 121.354 190.522 119.708 190.672 118.062C190.753 117.146 190.834 116.229 190.918 115.285C191.234 113 191.234 113 192.234 112Z" fill="#212120"/>
<path d="M236.234 62C236.894 62 237.554 62 238.234 62C238.049 62.7837 237.863 63.5675 237.672 64.375C236.975 66.9709 236.975 66.9709 238.234 69C237.244 70.485 237.244 70.485 236.234 72C235.244 72 234.254 72 233.234 72C233.984 65.375 233.984 65.375 236.234 62Z" fill="#2C2C2C"/>
<path d="M145.234 141C145.502 141.639 145.771 142.279 146.047 142.937C147.121 145.331 147.121 145.331 150.234 146C145.547 145.093 140.892 144.045 136.234 143C139.67 140.71 141.22 140.821 145.234 141Z" fill="#222222"/>
<path d="M263.234 51C263.894 51 264.554 51 265.234 51C263.865 54.1612 263.245 54.9927 260.234 57C257.902 57.0791 255.566 57.088 253.234 57C253.234 56.34 253.234 55.68 253.234 55C254.327 54.8556 255.421 54.7113 256.547 54.5625C260.166 54.1171 260.166 54.1171 263.234 53C263.234 52.34 263.234 51.68 263.234 51Z" fill="#0E0E0E"/>
<path d="M253.234 4C253.564 4 253.894 4 254.234 4C254.564 9.61 254.894 15.22 255.234 21C253.584 20.67 251.934 20.34 250.234 20C250.234 19.34 250.234 18.68 250.234 18C250.894 17.67 251.554 17.34 252.234 17C252.704 13.9542 252.704 13.9542 252.859 10.4375C252.934 9.23996 253.009 8.04242 253.086 6.80859C253.135 5.88176 253.184 4.95492 253.234 4Z" fill="#060605"/>
<path d="M263.234 28C263.894 28.33 264.554 28.66 265.234 29C265.234 32.3 265.234 35.6 265.234 39C264.574 38.34 263.914 37.68 263.234 37C262.574 37.66 261.914 38.32 261.234 39C261.234 37.35 261.234 35.7 261.234 34C261.564 34 261.894 34 262.234 34C262.564 32.02 262.894 30.04 263.234 28Z" fill="#0A0D09"/>
<path d="M191.235 128C192.338 131.308 192.056 131.808 191.235 135C191.197 137 191.19 139.001 191.235 141C190.575 141 189.915 141 189.235 141C187.759 132.695 187.759 132.695 189.735 129.812C190.23 129.214 190.725 128.616 191.235 128Z" fill="#212121"/>
<path d="M39.2344 43C40.2244 43.33 41.2144 43.66 42.2344 44C43.2244 43.67 44.2144 43.34 45.2344 43C44.6094 44.9375 44.6094 44.9375 43.2344 47C40.1094 47.75 40.1094 47.75 37.2344 48C36.9044 47.01 36.5744 46.02 36.2344 45C37.2244 44.34 38.2144 43.68 39.2344 43Z" fill="#2B2B2B"/>
<path d="M132.234 32C135.204 32 138.174 32 141.234 32C140.904 32.99 140.574 33.98 140.234 35C137.594 35 134.954 35 132.234 35C132.234 34.01 132.234 33.02 132.234 32Z" fill="#1F1F1F"/>
<path d="M83.2344 148C85.1265 150.386 86.2583 152.072 87.2344 155C82.5575 153.523 82.5575 153.523 80.9219 150.875C80.695 150.256 80.4681 149.638 80.2344 149C81.2244 148.67 82.2144 148.34 83.2344 148Z" fill="#333333"/>
<path d="M135.234 98C135.564 98.99 135.894 99.98 136.234 101C135.02 103.262 135.02 103.262 133.297 105.688C132.448 106.9 132.448 106.9 131.582 108.137C131.137 108.752 130.693 109.366 130.234 110C129.574 109.67 128.914 109.34 128.234 109C129.212 107.353 130.191 105.708 131.172 104.062C131.717 103.146 132.262 102.229 132.824 101.285C134.234 99 134.234 99 135.234 98Z" fill="#100F10"/>
<path d="M263.234 24C263.894 25.65 264.554 27.3 265.234 29C264.244 29.66 263.254 30.32 262.234 31C259.234 27.25 259.234 27.25 259.234 25C261.234 24 261.234 24 263.234 24Z" fill="#292928"/>
<path d="M234.234 0C236.172 0.1875 236.172 0.1875 238.234 1C239.484 3.0625 239.484 3.0625 240.234 5C238.254 5.33 236.274 5.66 234.234 6C233.852 4.34385 233.52 2.67543 233.234 1C233.564 0.67 233.894 0.34 234.234 0Z" fill="#252223"/>
<path d="M205.234 141C205.894 141 206.554 141 207.234 141C207.564 142.32 207.894 143.64 208.234 145C211.204 145.495 211.204 145.495 214.234 146C214.234 146.33 214.234 146.66 214.234 147C210.859 147.625 210.859 147.625 207.234 148C205.234 146 205.234 146 205.109 143.375C205.151 142.591 205.192 141.808 205.234 141Z" fill="#1D1D1C"/>
<path d="M116.234 125C119.922 125.498 121.839 126.101 124.234 129C123.904 129.99 123.574 130.98 123.234 132C122.065 131.024 120.899 130.044 119.734 129.062C119.085 128.517 118.435 127.972 117.766 127.41C117.26 126.945 116.755 126.479 116.234 126C116.234 125.67 116.234 125.34 116.234 125Z" fill="#1F1F1F"/>
<path d="M193.235 143C193.565 144.32 193.895 145.64 194.235 147C194.895 147 195.555 147 196.235 147C196.895 148.32 197.555 149.64 198.235 151C196.75 151.99 196.75 151.99 195.235 153C193.631 149.492 193.014 146.856 193.235 143Z" fill="#242424"/>
<path d="M163.234 91C166.504 91.5637 168.06 92.4996 170.234 95C167.859 95.625 167.859 95.625 165.234 96C164.574 95.34 163.914 94.68 163.234 94C163.234 93.01 163.234 92.02 163.234 91Z" fill="#20211E"/>
<path d="M230.234 76C230.564 76.99 230.894 77.98 231.234 79C231.894 79 232.554 79 233.234 79C232.574 80.32 231.914 81.64 231.234 83C230.244 83 229.254 83 228.234 83C227.904 82.01 227.574 81.02 227.234 80C228.672 77.8125 228.672 77.8125 230.234 76Z" fill="#1C1C1C"/>
<path d="M155.234 136C154.904 136.66 154.574 137.32 154.234 138C153.399 137.784 153.399 137.784 152.547 137.563C150.121 136.973 147.685 136.477 145.234 136C145.234 135.67 145.234 135.34 145.234 135C149.289 133.842 151.452 134.163 155.234 136Z" fill="#282828"/>
<path d="M221.234 103C224.396 104.37 225.227 104.989 227.234 108C226.904 108.99 226.574 109.98 226.234 111C221.234 105.25 221.234 105.25 221.234 103Z" fill="#1D1D1D"/>
<path d="M90.2344 47C90.5644 47.66 90.8944 48.32 91.2344 49C89.7627 52.7358 89.7627 52.7358 87.2344 54C86.5744 54.99 85.9144 55.98 85.2344 57C85.6664 52.2483 86.5621 50.08 90.2344 47Z" fill="#2E2E2E"/>
<path d="M227.234 109C228.554 110.32 229.874 111.64 231.234 113C230.574 114.65 229.914 116.3 229.234 118C227.377 114.865 227.033 112.625 227.234 109Z" fill="#383838"/>
<path d="M252.234 32C253.224 32 254.214 32 255.234 32C255.564 34.31 255.894 36.62 256.234 39C254.234 37.75 254.234 37.75 252.234 36C252.234 34.68 252.234 33.36 252.234 32Z" fill="#7AA24E"/>
<path d="M229.234 6C229.564 6.66 229.894 7.32 230.234 8C230.894 8 231.554 8 232.234 8C231.574 9.65 230.914 11.3 230.234 13C229.244 12.34 228.254 11.68 227.234 11C227.894 9.35 228.554 7.7 229.234 6Z" fill="#302F2E"/>
</svg>
