<svg width="267" height="159" viewBox="0 0 267 159" fill="none" xmlns="http://www.w3.org/2000/svg">
<path d="M231.266 0.246094C233.969 1.3245 234.634 2.62443 236.062 5.125C236.49 5.85848 236.918 6.59195 237.359 7.34766C237.674 7.91355 237.988 8.47945 238.312 9.0625C238.699 8.41281 239.086 7.76312 239.484 7.09375C240.266 5.84078 240.266 5.84078 241.062 4.5625C241.828 3.30953 241.828 3.30953 242.609 2.03125C243.171 1.38156 243.733 0.731875 244.312 0.0625C245.633 0.0625 246.952 0.0625 248.312 0.0625C249.638 6.02925 249.401 11.9883 249.312 18.0625C250.06 18.3396 250.808 18.6168 251.578 18.9023C255.544 20.5849 258.65 22.6383 261.312 26.0625C261.871 28.4112 261.998 30.5592 262.07 32.9688C262.155 35.3335 262.155 35.3335 264.375 37.625C266.757 40.6218 266.963 42.3934 266.766 46.1406C265.981 49.4701 263.911 50.9836 261.312 53.0625C260.574 53.7702 259.835 54.4779 259.074 55.207C255.521 57.5946 253.532 57.3228 249.312 57C243.885 56.7326 243.885 56.7326 239.188 59.1875C238.569 60.1362 237.95 61.085 237.312 62.0625C236.652 62.9081 235.992 63.7537 235.312 64.625C232.993 68.6123 231.321 72.692 229.617 76.9727C228.079 80.6149 226.227 84.0086 224.23 87.418C221.635 94.896 223.86 102.154 226.125 109.438C226.684 111.298 227.243 113.159 227.801 115.02C228.2 116.336 228.2 116.336 228.608 117.678C229.434 120.473 230.13 123.292 230.812 126.125C232.187 131.323 234.579 135.902 237.105 140.629C238.312 143.062 238.312 143.062 238.312 145.062C239.55 145.001 240.788 144.939 242.062 144.875C244.823 144.89 246.252 145.035 248.812 146.188C250.312 148.062 250.312 148.062 250.812 151.062C250.312 154.062 250.312 154.062 248.5 155.875C243.327 158.683 238.064 158.767 232.312 158.062C223.877 152.502 219.18 140.007 214.867 131.066C211.176 123.779 207.207 118.247 201.547 112.402C199.612 110.376 197.934 108.342 196.312 106.062C195.329 107.497 194.351 108.935 193.375 110.375C192.83 111.176 192.284 111.976 191.723 112.801C190.174 115.088 190.174 115.088 189.312 118.062C188.652 118.062 187.992 118.062 187.312 118.062C186.941 119.238 186.941 119.238 186.562 120.438C185.55 123.374 184.44 126.197 183.25 129.062C181.761 132.727 180.729 136.102 180.312 140.062C181.282 140.372 182.251 140.681 183.25 141C186.312 142.062 186.312 142.062 187.312 143.062C187.5 146 187.5 146 187.312 149.062C184.564 151.811 182.835 151.426 179 151.5C174.832 151.408 172.739 151.301 169.062 149.25C166.53 144.636 165.892 140.297 166.312 135.062C166.965 132.889 167.723 130.765 168.484 128.627C170.039 123.812 170.903 118.834 171.875 113.875C174.37 101.245 174.37 101.245 176.312 96.0625C175.728 96.0951 175.144 96.1278 174.542 96.1614C167.444 96.3808 161.264 95.0986 154.438 93.25C152.939 92.8584 152.939 92.8584 151.41 92.459C149.403 91.9345 147.397 91.4057 145.392 90.8726C140.378 89.5535 135.345 88.3081 130.312 87.0625C130.144 88.5591 130.144 88.5591 129.973 90.0859C129.495 93.4385 128.573 96.5084 127.444 99.7068C124.765 107.351 122.563 114.934 124.312 123.062C126.851 127.776 129.872 131.102 134.312 134.062C136.728 134.267 136.728 134.267 139.312 134.125C142.447 134.018 144.296 134.057 147.312 135.062C149.766 138.742 149.708 140.717 149.312 145.062C146.041 147.243 145.039 147.311 141.25 147.25C139.933 147.24 139.933 147.24 138.59 147.23C136.312 147.062 136.312 147.062 134.312 146.062C132.731 145.934 131.147 145.834 129.562 145.75C122.899 145.1 119.382 142.399 115.062 137.438C114.489 136.734 113.915 136.03 113.324 135.305C111.318 132.953 111.318 132.953 108.645 130.883C101.553 124.941 101.553 124.941 100.816 119.184C100.828 117.082 100.937 115.008 101.084 112.912C101.496 107.013 100.411 103.042 97.3125 98.0625C95.3164 98.9408 93.5435 99.8758 91.8442 101.249C86.8758 105.265 82.4525 106.088 76.1875 106.75C66.6435 107.608 66.6435 107.608 58.75 112.562C53.648 119.21 51.8856 126.458 51.6836 134.715C51.3125 137.062 51.3125 137.062 50.0078 138.855C47.1818 140.868 44.6468 140.426 41.3125 140.062C38.2832 135.519 37.9456 131.477 38.3125 126.062C39.517 121.996 41.0187 118.173 42.6602 114.27C43.8276 111.456 44.6959 108.732 45.3711 105.762C46.9136 99.1459 48.2968 94.0427 54.2029 90.1113C61.1404 86.0625 61.1404 86.0625 64.3125 86.0625C64.5806 85.485 64.8487 84.9075 65.125 84.3125C66.3125 82.0625 66.3125 82.0625 67.75 80.3125C71.7206 74.5948 72.4224 69.6387 72.625 62.8125C72.9657 55.0932 75.3312 49.6007 79.3125 43.0625C68.9741 46.1737 62.3482 51.1766 54.6128 58.4841C48.5861 64.1621 42.6885 69.1618 35.3125 73.0625C34.365 73.5678 33.4176 74.0731 32.4414 74.5938C23.2984 78.7867 12.275 79.7065 2.3125 78.0625C0.3125 76.0625 0.3125 76.0625 0 73.625C0.3125 71.0625 0.3125 71.0625 1.36719 69.457C4.25699 67.3854 7.30946 67.4426 10.75 67.1875C26.2307 65.6284 37.7196 58.2413 48.25 47.125C58.7199 36.4217 68.9107 27.9462 84.625 27.75C87.9293 27.8578 90.9754 28.1677 94.25 28.6875C97.2451 29.3117 97.2451 29.3117 99.5781 28.1094C112.848 23.0288 133.481 28.4943 146.586 32.2188C159.01 35.6885 171.27 35.3796 184.075 35.1787C184.85 35.1671 185.625 35.1554 186.423 35.1434C187.892 35.1187 189.361 35.0883 190.83 35.0513C194.183 34.9865 197.097 35.1132 200.312 36.0625C205.907 36.5439 205.907 36.5439 211 34.625C215.733 29.3805 218.235 24.0074 219.75 17.125C221.108 11.0355 223.559 6.04972 227.312 1.0625C229.312 0.0625 229.312 0.0625 231.266 0.246094Z" fill="#141413"/>
<path d="M144.505 31.9419C146.312 33.0625 146.312 33.0625 148.312 36.0625C143.913 35.5306 139.525 34.9559 135.141 34.3086C114.452 30.7896 114.452 30.7896 94.3125 35.0625C86.5149 41.315 79.607 51.1669 78.4375 61.25C78.3962 62.5082 78.355 63.7663 78.3125 65.0625C76.542 62.0214 76.1036 59.9387 76.25 56.4375C76.4269 53.1201 76.4269 53.1201 75.3125 50.0625C76.0898 48.336 76.0898 48.336 77.25 46.4375C77.9306 45.3238 78.6113 44.21 79.3125 43.0625C68.9741 46.1737 62.3482 51.1767 54.6128 58.4842C48.5861 64.1622 42.6885 69.1619 35.3125 73.0625C34.365 73.5679 33.4176 74.0732 32.4414 74.5938C23.2984 78.7868 12.275 79.7066 2.3125 78.0625C0.3125 76.0625 0.3125 76.0625 0 73.625C0.3125 71.0625 0.3125 71.0625 1.36719 69.4571C4.25699 67.3855 7.30946 67.4427 10.75 67.1875C26.2307 65.6285 37.7196 58.2414 48.25 47.125C58.7199 36.4217 68.9107 27.9462 84.625 27.75C87.9293 27.8579 90.9754 28.1678 94.25 28.6875C97.2451 29.3117 97.2451 29.3117 99.5781 28.1094C111.519 23.5376 132.998 27.3264 144.505 31.9419Z" fill="#151515"/>
<path d="M131.312 80.0625C132.959 80.2029 134.605 80.35 136.25 80.5C137.625 80.6218 137.625 80.6218 139.027 80.7461C141.312 81.0625 141.312 81.0625 142.312 82.0625C143.805 82.3883 145.308 82.6727 146.812 82.9375C150.118 83.5642 153.17 84.309 156.312 85.5C166.973 89.2369 179.104 90.3465 190.312 91.0625C190.972 92.7125 191.632 94.3625 192.312 96.0625C175.568 96.8573 160.887 95.5691 144.804 90.79C141.33 89.7756 137.829 88.9148 134.312 88.0625C134.973 87.4025 135.633 86.7425 136.312 86.0625C134.662 85.7325 133.013 85.4025 131.312 85.0625C131.312 83.4125 131.312 81.7625 131.312 80.0625Z" fill="#222221"/>
<path d="M231.249 0C234.671 1.76284 235.637 4.65318 237.312 8.0625C237.312 8.7225 237.312 9.3825 237.312 10.0625C236.652 10.0625 235.992 10.0625 235.312 10.0625C235.188 10.7019 235.064 11.3413 234.937 12C234.73 12.6806 234.524 13.3612 234.312 14.0625C233.322 14.5575 233.322 14.5575 232.312 15.0625C231.322 14.4025 230.332 13.7425 229.312 13.0625C229.9 19.0716 229.9 19.0716 230.999 25C231.102 25.6806 231.205 26.3612 231.312 27.0625C230.652 27.7225 229.992 28.3825 229.312 29.0625C226.687 28.6875 226.687 28.6875 224.312 28.0625C223.831 26.4795 223.352 24.8961 222.874 23.3125C222.474 21.9899 222.474 21.9899 222.065 20.6406C221.817 19.7898 221.568 18.9391 221.312 18.0625C220.931 17.0996 220.931 17.0996 220.542 16.1172C220.179 12.8807 221.591 10.787 223.062 7.9375C223.858 6.35582 223.858 6.35582 224.671 4.74219C226.41 1.90168 227.731 0.113494 231.249 0Z" fill="#1E1919"/>
<path d="M244.312 0.0625C245.632 0.0625 246.953 0.0625 248.312 0.0625C249.638 6.02925 249.401 11.9883 249.312 18.0625C250.059 18.3384 250.805 18.6142 251.574 18.8984C255.516 20.5743 258.68 22.6421 261.312 26.0625C261.91 28.977 261.675 31.0579 261.312 34.0625C260.983 33.0725 260.653 32.0825 260.312 31.0625C259.323 30.7325 258.333 30.4025 257.312 30.0625C254.312 25.7292 254.312 25.7292 254.312 23.0625C253.576 22.9297 252.84 22.797 252.082 22.6602C251.106 22.4836 250.13 22.307 249.125 22.125C248.162 21.951 247.199 21.777 246.207 21.5977C243.57 21.1101 240.941 20.5958 238.312 20.0625C238.312 18.7425 238.312 17.4225 238.312 16.0625C239.303 15.7325 240.293 15.4025 241.312 15.0625C240.652 14.7325 239.993 14.4025 239.312 14.0625C239.312 13.4025 239.312 12.7425 239.312 12.0625C238.652 12.0625 237.993 12.0625 237.312 12.0625C241.928 2.44711 241.928 2.44712 244.312 0.0625Z" fill="#121210"/>
<path d="M76.3125 31.0625C75.3125 34.0625 75.3125 34.0625 73.6328 34.9492C72.9084 35.2135 72.1839 35.4778 71.4375 35.75C61.9134 39.7673 54.7004 46.4472 47.5981 53.7596C42.4388 59.0467 36.8627 63.5948 30.3125 67.0625C29.6525 67.0625 28.9925 67.0625 28.3125 67.0625C28.3125 66.4025 28.3125 65.7425 28.3125 65.0625C27.6525 65.0625 26.9925 65.0625 26.3125 65.0625C26.6425 66.0525 26.9725 67.0425 27.3125 68.0625C26.6525 68.0625 25.9925 68.0625 25.3125 68.0625C25.3125 67.4025 25.3125 66.7425 25.3125 66.0625C22.3425 66.5575 22.3425 66.5575 19.3125 67.0625C21.7633 65.4287 23.7542 64.409 26.4375 63.3125C35.1762 59.4621 41.731 54.0111 48.25 47.125C66.5839 28.2829 66.5839 28.2829 76.3125 31.0625Z" fill="#282828"/>
<path d="M218.312 64.0625C219.302 64.3925 220.292 64.7225 221.312 65.0625C222.511 69.9364 222.65 74.8211 222.875 79.8125C222.918 80.6684 222.961 81.5244 223.006 82.4062C223.2 86.4687 223.304 90.4668 223.156 94.5312C223.128 99.9076 224.662 104.717 226.25 109.812C226.802 111.64 227.353 113.468 227.902 115.297C228.148 116.093 228.394 116.89 228.648 117.71C229.335 120.144 229.847 122.577 230.312 125.062C229.652 124.732 228.992 124.403 228.312 124.062C228.312 123.403 228.312 122.743 228.312 122.062C226.827 122.557 226.827 122.557 225.312 123.062C225.047 122.159 224.781 121.255 224.508 120.324C223.978 118.555 223.978 118.555 223.437 116.75C223.089 115.578 222.741 114.406 222.383 113.199C221.425 109.953 221.425 109.953 219.312 107.062C217.608 102.488 217.381 99.3873 218.057 94.6199C218.622 88.9597 218.412 83.2445 218.375 77.5625C218.368 75.6134 218.368 75.6134 218.361 73.625C218.349 70.4375 218.333 67.25 218.312 64.0625Z" fill="#262524"/>
<path d="M25.3125 66.0625C24.9375 68 24.9375 68 24.3125 70.0625C23.3225 70.5575 23.3225 70.5575 22.3125 71.0625C22.3125 72.0525 22.3125 73.0425 22.3125 74.0625C22.9725 74.3925 23.6325 74.7225 24.3125 75.0625C19.3625 75.7225 14.4125 76.3825 9.3125 77.0625C9.3125 77.3925 9.3125 77.7225 9.3125 78.0625C5.9375 78.1875 5.9375 78.1875 2.3125 78.0625C0.3125 76.0625 0.3125 76.0625 0 73.625C0.37438 70.5551 0.919993 69.9376 3.3125 68.0625C5.45728 67.5383 5.45728 67.5383 7.91016 67.332C8.79381 67.2515 9.67746 67.1709 10.5879 67.0879C11.5076 67.0176 12.4274 66.9474 13.375 66.875C14.7604 66.7522 14.7604 66.7522 16.1738 66.627C22.6674 66.0625 22.6674 66.0625 25.3125 66.0625Z" fill="#151515"/>
<path d="M131.312 80.0625C132.959 80.2029 134.605 80.35 136.25 80.5C137.625 80.6218 137.625 80.6218 139.027 80.7461C141.312 81.0625 141.312 81.0625 142.312 82.0625C143.805 82.3883 145.308 82.6727 146.812 82.9375C151.748 83.8891 156.719 84.9696 161.312 87.0625C161.642 87.7225 161.972 88.3825 162.312 89.0625C161.653 89.0625 160.993 89.0625 160.312 89.0625C160.312 89.7225 160.312 90.3825 160.312 91.0625C158.951 91.0316 158.951 91.0316 157.562 91C154.495 90.922 154.495 90.922 152.353 91.615C148.829 92.388 145.471 91.0553 142.062 90.125C141.317 89.9297 140.572 89.7344 139.805 89.5332C137.972 89.0515 136.142 88.5581 134.312 88.0625C134.973 87.4025 135.633 86.7425 136.312 86.0625C134.662 85.7325 133.013 85.4025 131.312 85.0625C131.312 83.4125 131.312 81.7625 131.312 80.0625Z" fill="#252524"/>
<path d="M131.062 28.9373C132.11 29.111 133.158 29.2846 134.237 29.4635C143 31.0089 143 31.0089 146.312 33.0623C146.972 34.0523 147.632 35.0423 148.312 36.0623C143.98 35.5422 139.664 34.9739 135.352 34.3084C123.57 32.5277 112.222 31.6654 100.312 32.0623C100.312 31.4023 100.312 30.7423 100.312 30.0623C99.6525 29.4023 98.9925 28.7423 98.3125 28.0623C108.669 24.9092 120.652 27.2057 131.062 28.9373Z" fill="#212121"/>
<path d="M235.314 10.0625C235.974 10.0625 236.634 10.0625 237.314 10.0625C237.314 10.7225 237.314 11.3825 237.314 12.0625C237.974 12.0625 238.634 12.0625 239.314 12.0625C239.314 12.7225 239.314 13.3825 239.314 14.0625C240.634 14.7225 241.954 15.3825 243.314 16.0625C241.664 16.0625 240.014 16.0625 238.314 16.0625C238.211 16.9288 238.108 17.795 238.002 18.6875C237.088 23.1727 235.648 26.5858 232.564 30C229.088 31.6417 226.933 31.181 223.314 30.0625C220.402 26.4225 220.154 23.6613 220.627 19.1875C220.838 17.8097 221.061 16.4333 221.314 15.0625C221.644 15.0625 221.974 15.0625 222.314 15.0625C222.447 15.7496 222.58 16.4366 222.716 17.1445C222.893 18.0456 223.07 18.9466 223.252 19.875C223.426 20.7683 223.6 21.6616 223.779 22.582C224.291 25.1765 224.291 25.1765 225.314 28.0625C226.964 27.7325 228.614 27.4025 230.314 27.0625C230.098 26.1034 230.098 26.1034 229.877 25.125C229.142 21.1241 228.728 17.1075 228.314 13.0625C228.974 12.7325 229.634 12.4025 230.314 12.0625C230.314 12.7225 230.314 13.3825 230.314 14.0625C232.299 13.7957 232.299 13.7957 234.314 13.0625C234.644 12.0725 234.974 11.0825 235.314 10.0625Z" fill="#060504"/>
<path d="M69.3125 78.0625C71.3125 80.0625 71.3125 80.0625 72.3125 83.0625C69.2997 88.3546 63.9856 92.0555 59.168 95.582C57.1981 96.9411 57.1981 96.9411 56.3125 99.0625C54.9792 99.3958 53.6458 99.7292 52.3125 100.062C51.9825 100.722 51.6525 101.382 51.3125 102.062C49.9925 102.062 48.6725 102.062 47.3125 102.062C47.7553 97.1921 48.6702 95.2668 52.3125 92.0625C53.9859 90.926 55.6961 89.8418 57.4375 88.8125C58.3063 88.2917 59.1752 87.7709 60.0703 87.2344C62.3125 86.0625 62.3125 86.0625 64.3125 86.0625C64.5806 85.485 64.8487 84.9075 65.125 84.3125C66.3297 82.0299 67.7205 80.0887 69.3125 78.0625Z" fill="#161616"/>
<path d="M122.313 114.062C122.643 114.062 122.973 114.062 123.313 114.062C123.334 115.362 123.354 116.661 123.376 118C124.01 123.981 127.222 127.837 131.313 132.062C134.615 134.263 135.507 134.267 139.313 134.125C142.447 134.018 144.297 134.057 147.313 135.062C146.313 137.062 146.313 137.062 145.313 138.062C143.314 138.103 141.313 138.105 139.313 138.062C139.643 139.382 139.973 140.702 140.313 142.062C131.991 140.894 131.991 140.894 129.376 137.688C129.025 136.821 128.674 135.955 128.313 135.062C127.38 132.862 127.38 132.862 126.313 131.062C125.323 130.733 124.333 130.403 123.313 130.062C121.237 126.292 121.181 123.463 121.688 119.25C121.799 118.274 121.91 117.298 122.024 116.293C122.119 115.557 122.215 114.821 122.313 114.062Z" fill="#1F1F1F"/>
<path d="M201.938 36.0627C203.194 36.3412 203.194 36.3412 204.477 36.6252C205.082 36.7696 205.688 36.914 206.312 37.0627C206.312 37.3927 206.312 37.7227 206.312 38.0627C204.662 38.0627 203.013 38.0627 201.312 38.0627C201.312 38.7227 201.312 39.3827 201.312 40.0627C191.083 40.0627 180.852 40.0627 170.312 40.0627C171.633 39.4027 172.952 38.7427 174.312 38.0627C171.672 37.7327 169.033 37.4027 166.312 37.0627C166.312 36.7327 166.312 36.4027 166.312 36.0627C169.437 35.8917 172.562 35.7267 175.688 35.5627C176.558 35.515 177.428 35.4673 178.324 35.4182C195.273 34.5394 195.273 34.5394 201.938 36.0627Z" fill="#292929"/>
<path d="M126.312 66.0625C128.717 68.4674 128.568 69.0341 128.578 72.3164C128.581 73.1717 128.583 74.027 128.586 74.9082C128.578 75.8047 128.57 76.7013 128.562 77.625C128.57 78.4945 128.578 79.3639 128.586 80.2598C128.565 87.2427 128.265 94.1335 124.312 100.062C124.107 102.864 124.05 104.537 125.312 107.062C124.652 108.053 123.992 109.042 123.312 110.062C122.982 110.062 122.652 110.062 122.312 110.062C121.652 113.362 120.992 116.662 120.312 120.062C119.982 120.062 119.652 120.062 119.312 120.062C118.977 111.446 119.266 104.157 122.312 96.0625C122.684 94.9487 123.055 93.835 123.437 92.6875C123.87 91.3881 123.87 91.3881 124.312 90.0625C125.159 87.1087 125.491 84.3646 125.629 81.2969C125.671 80.4074 125.713 79.518 125.756 78.6016C125.815 77.221 125.815 77.221 125.875 75.8125C125.94 74.4087 125.94 74.4087 126.006 72.9766C126.112 70.672 126.214 68.3674 126.312 66.0625Z" fill="#232323"/>
<path d="M101.314 116.062C101.644 116.062 101.974 116.062 102.314 116.062C102.314 118.043 102.314 120.023 102.314 122.062C102.974 122.062 103.634 122.062 104.314 122.062C104.314 120.742 104.314 119.423 104.314 118.062C104.974 118.062 105.634 118.062 106.314 118.062C108.314 121.062 108.314 121.062 108.064 123.438C108.044 126.355 108.044 126.355 110.939 128.438C111.486 128.844 112.032 129.25 112.596 129.668C115.045 131.655 116.881 134.039 118.822 136.512C120.498 138.253 122.168 138.996 124.314 140.062C124.676 141.388 125.012 142.722 125.314 144.062C126.304 144.392 127.294 144.722 128.314 145.062C123.838 144.75 121.883 143.858 118.833 140.638C117.058 138.796 115.198 137.064 113.326 135.32C111.884 133.943 110.443 132.565 109.002 131.188C107.891 130.165 107.891 130.165 106.758 129.121C101.55 124.081 101.55 124.081 100.836 120.995C100.834 119.055 100.834 119.055 101.314 116.062Z" fill="#1D1D1D"/>
<path d="M190.312 87.0625C191.812 88.3125 191.812 88.3125 193.312 90.0625C193.312 91.3825 193.312 92.7025 193.312 94.0625C193.972 94.0625 194.632 94.0625 195.312 94.0625C196.962 97.3625 198.612 100.663 200.312 104.062C199.323 104.062 198.333 104.062 197.312 104.062C196.653 102.413 195.993 100.762 195.312 99.0625C192.855 98.8412 190.397 98.635 187.938 98.4375C187.239 98.373 186.54 98.3086 185.82 98.2422C183.989 98.1013 182.149 98.0749 180.312 98.0625C178.174 100.201 177.886 101.195 177.312 104.062C176.652 104.062 175.993 104.062 175.312 104.062C175.643 101.092 175.972 98.1225 176.312 95.0625C178.604 95.0356 180.896 95.0161 183.188 95C184.464 94.9884 185.74 94.9768 187.055 94.9648C190.312 95.0625 190.312 95.0625 192.312 96.0625C191.797 95.1344 191.281 94.2063 190.75 93.25C189.312 90.0625 189.312 90.0625 190.312 87.0625Z" fill="#060606"/>
<path d="M253.312 45.0625C253.09 46.8906 253.09 46.8906 252.312 49.0625C250.316 50.5468 250.316 50.5468 247.875 51.8125C246.67 52.4544 246.67 52.4544 245.441 53.1093C243.312 54.0625 243.312 54.0625 241.312 54.0625C241.642 55.0525 241.972 56.0425 242.312 57.0625C241.323 57.3925 240.333 57.7225 239.312 58.0625C239.312 54.0625 239.312 54.0625 240.812 52.3125C241.307 51.9 241.802 51.4875 242.312 51.0625C241.714 51.4131 241.116 51.7637 240.5 52.125C238.312 53.0625 238.312 53.0625 235.312 52.0625C242.741 47.6339 242.741 47.6339 246.312 47.0625C244.611 47.279 244.611 47.279 242.875 47.5C238.359 48.0655 233.837 48.5702 229.312 49.0625C229.643 48.0725 229.972 47.0825 230.312 46.0625C237.963 44.8133 245.587 44.9719 253.312 45.0625Z" fill="#202020"/>
<path d="M8 67.8752C9.21236 67.9159 9.21236 67.9159 10.4492 67.9573C11.0641 67.9921 11.679 68.0269 12.3125 68.0627C12.3125 68.7227 12.3125 69.3827 12.3125 70.0627C13.9625 70.0627 15.6125 70.0627 17.3125 70.0627C14.3125 72.0627 14.3125 72.0627 12.1875 72.9377C10.1117 73.9123 10.1117 73.9123 9.5625 76.1877C9.48 76.8065 9.3975 77.4253 9.3125 78.0627C5.9375 78.1877 5.9375 78.1877 2.3125 78.0627C0.3125 76.0627 0.3125 76.0627 0 73.6252C0.3125 71.0627 0.3125 71.0627 1.53906 69.4143C3.83428 67.6651 5.14981 67.7513 8 67.8752Z" fill="#1E1E1E"/>
<path d="M151.312 34.0625C154.363 34.2842 157.293 34.621 160.312 35.0625C162.029 35.2791 163.745 35.4952 165.461 35.7109C167.203 35.9513 168.946 36.1935 170.688 36.4375C172.02 36.6077 172.02 36.6077 173.379 36.7812C174.231 36.9024 175.083 37.0236 175.961 37.1484C176.726 37.252 177.491 37.3557 178.279 37.4624C180.676 38.1697 181.711 39.181 183.312 41.0625C175.203 41.4145 167.557 41.0049 159.562 39.6875C158.383 39.4984 158.383 39.4984 157.18 39.3054C151.569 38.3195 151.569 38.3195 149.312 36.0625C149.973 35.4025 150.632 34.7425 151.312 34.0625Z" fill="#1E1E1E"/>
<path d="M234.312 143.062C235.303 143.062 236.293 143.062 237.312 143.062C237.642 143.723 237.973 144.382 238.312 145.062C239.55 145.001 240.787 144.939 242.062 144.875C244.823 144.89 246.252 145.035 248.812 146.188C250.312 148.062 250.312 148.062 250.812 151.062C250.312 154.062 250.312 154.062 248.312 155.938C247.323 156.494 247.323 156.494 246.312 157.062C244.312 156.062 244.312 156.062 243.312 155.062C243.272 153.396 243.27 151.729 243.312 150.062C239.508 147.861 239.508 147.861 235.312 147.062C234.982 145.742 234.653 144.423 234.312 143.062Z" fill="#181818"/>
<path d="M220.312 62.0625C221.303 62.5575 221.303 62.5575 222.312 63.0625C222.916 65.5982 223.27 68.1371 223.652 70.7148C224.137 73.4155 224.137 73.4155 227.312 75.0625C228.302 73.0825 229.292 71.1025 230.312 69.0625C230.642 69.0625 230.972 69.0625 231.312 69.0625C231.007 75.9434 228.041 81.3456 224.312 87.0625C223.652 87.3925 222.993 87.7225 222.312 88.0625C222.222 86.2527 222.222 86.2527 222.129 84.4062C222.044 82.7917 221.96 81.1771 221.875 79.5625C221.836 78.771 221.796 77.9795 221.756 77.1641C221.485 72.0886 221 67.0987 220.312 62.0625Z" fill="#0D0D0D"/>
<path d="M238.312 16.0625C258.163 21.2077 258.163 21.2077 261.312 26.0625C261.63 28.8196 261.499 31.2701 261.312 34.0625C260.983 33.0725 260.653 32.0825 260.312 31.0625C259.323 30.7325 258.333 30.4025 257.312 30.0625C254.312 25.7292 254.312 25.7292 254.312 23.0625C253.576 22.9297 252.84 22.797 252.082 22.6602C251.106 22.4836 250.13 22.307 249.125 22.125C248.162 21.951 247.199 21.777 246.207 21.5977C243.57 21.1101 240.941 20.5958 238.312 20.0625C238.312 18.7425 238.312 17.4225 238.312 16.0625Z" fill="#292826"/>
<path d="M85.3125 42.0625C85.3125 45.7153 84.2522 47.0868 82.375 50.1875C79.4569 55.344 78.5055 59.1755 78.3125 65.0625C76.542 62.0213 76.1036 59.9387 76.25 56.4375C76.4269 53.12 76.4269 53.12 75.3125 50.0625C76.5625 47.4375 76.5625 47.4375 78.3125 45.0625C79.3025 45.0625 80.2925 45.0625 81.3125 45.0625C83.4828 43.6226 83.4828 43.6226 85.3125 42.0625Z" fill="#2B2B2B"/>
<path d="M99.3125 99.0625C99.9725 99.0625 100.632 99.0625 101.312 99.0625C102.963 103.352 104.613 107.642 106.312 112.062C106.972 111.733 107.632 111.403 108.312 111.062C108.292 112.156 108.271 113.249 108.25 114.375C108.127 118.006 108.127 118.006 109.312 121.062C108.323 120.733 107.333 120.403 106.312 120.062C106.312 119.403 106.312 118.743 106.312 118.062C105.653 118.062 104.992 118.062 104.312 118.062C104.312 119.382 104.312 120.702 104.312 122.062C103.653 122.062 102.993 122.062 102.312 122.062C102.239 120.525 102.239 120.525 102.164 118.957C102.089 117.596 102.013 116.236 101.938 114.875C101.891 113.865 101.891 113.865 101.844 112.834C101.61 108.833 100.91 105.718 99.3125 102.062C99.3125 101.072 99.3125 100.082 99.3125 99.0625Z" fill="#090909"/>
<path d="M261.312 49.0623C261.972 49.7223 262.632 50.3823 263.312 51.0623C257.86 56.7879 257.86 56.7879 254.066 57.4608C251.875 57.4373 251.875 57.4373 248.312 57.0623C248.973 55.7423 249.632 54.4223 250.312 53.0623C249.322 52.7323 248.332 52.4023 247.312 52.0623C252.188 50.0859 255.983 48.7221 261.312 49.0623Z" fill="#212120"/>
<path d="M69.3125 78.0625C71.3125 80.0625 71.3125 80.0625 72.3125 83.0625C71.2383 84.8164 71.2383 84.8164 69.625 86.625C69.1055 87.2244 68.586 87.8238 68.0508 88.4414C66.1992 90.1682 64.6906 91.1948 62.3125 92.0625C61.3225 91.7325 60.3325 91.4025 59.3125 91.0625C59.9725 90.4025 60.6325 89.7425 61.3125 89.0625C60.6525 88.7325 59.9925 88.4025 59.3125 88.0625C60.0962 87.815 60.88 87.5675 61.6875 87.3125C64.7467 85.8557 65.0619 85.0998 66.3125 82.0625C67.2883 80.7114 68.2828 79.373 69.3125 78.0625Z" fill="#232322"/>
<path d="M221.311 89.0625C221.641 89.0625 221.971 89.0625 222.311 89.0625C222.476 90.2613 222.476 90.2613 222.643 91.4844C223.473 97.2316 224.437 102.824 225.936 108.438C227.096 112.831 227.62 116.537 227.311 121.062C224.735 117.199 223.862 113.394 222.686 108.938C222.342 107.712 222.342 107.712 221.991 106.461C220.497 100.84 220 95.88 220.311 90.0625C220.641 89.7325 220.971 89.4025 221.311 89.0625Z" fill="#171716"/>
<path d="M235.312 10.0625C235.972 10.0625 236.633 10.0625 237.312 10.0625C237.312 10.7225 237.312 11.3825 237.312 12.0625C237.972 12.0625 238.633 12.0625 239.312 12.0625C239.312 12.7225 239.312 13.3825 239.312 14.0625C240.632 14.7225 241.953 15.3825 243.312 16.0625C241.663 16.0625 240.012 16.0625 238.312 16.0625C238.312 17.3825 238.312 18.7025 238.312 20.0625C236.662 20.7225 235.013 21.3825 233.312 22.0625C232.582 20.085 231.918 18.0818 231.312 16.0625C232.312 14.0625 232.312 14.0625 234.312 13.0625C234.642 12.0725 234.973 11.0825 235.312 10.0625Z" fill="#090907"/>
<path d="M74.3125 52.0625C75.4756 55.612 75.2362 58.6207 74.875 62.3125C74.7732 63.3902 74.6713 64.4678 74.5664 65.5781C74.4826 66.398 74.3988 67.2178 74.3125 68.0625C74.9725 68.0625 75.6325 68.0625 76.3125 68.0625C77.7419 70.4169 78.3991 71.5428 77.9375 74.3125C77.7312 74.89 77.525 75.4675 77.3125 76.0625C76.6525 76.0625 75.9925 76.0625 75.3125 76.0625C74.6525 76.7225 73.9925 77.3825 73.3125 78.0625C72.3225 77.4025 71.3325 76.7425 70.3125 76.0625C70.6309 75.2311 70.9493 74.3996 71.2773 73.543C72.4111 69.7311 72.6895 66.3425 72.875 62.375C73.2153 55.3542 73.2153 55.3542 74.3125 52.0625Z" fill="#303030"/>
<path d="M253.312 46.0625C254.962 46.3925 256.613 46.7225 258.312 47.0625C257.983 48.0525 257.653 49.0425 257.312 50.0625C253.75 51.25 253.75 51.25 250.312 52.0625C250.312 53.0525 250.312 54.0425 250.312 55.0625C251.962 55.0625 253.613 55.0625 255.312 55.0625C255.312 55.3925 255.312 55.7225 255.312 56.0625C250.693 56.0625 246.073 56.0625 241.312 56.0625C241.312 55.4025 241.312 54.7425 241.312 54.0625C242.095 53.6526 242.877 53.2427 243.684 52.8203C244.696 52.2815 245.707 51.7427 246.75 51.1875C247.759 50.6538 248.769 50.1202 249.809 49.5703C252.414 48.306 252.414 48.306 253.312 46.0625Z" fill="#0E0E0D"/>
<path d="M219.312 18.0625C219.642 18.0625 219.972 18.0625 220.312 18.0625C221.762 24.518 220.661 28.255 217.219 33.8359C216.28 35.2647 215.3 36.6666 214.312 38.0625C211.838 37.0725 211.838 37.0725 209.312 36.0625C209.711 35.6268 210.109 35.1911 210.52 34.7422C215.051 29.6485 218.298 24.9627 219.312 18.0625Z" fill="#303030"/>
<path d="M197.312 97.0625C199.812 99.3125 199.812 99.3125 202.312 102.062C202.312 103.383 202.312 104.702 202.312 106.062C202.972 106.062 203.632 106.062 204.312 106.062C203.983 108.372 203.653 110.682 203.312 113.062C200.979 110.729 198.646 108.396 196.312 106.062C195.982 106.062 195.653 106.062 195.312 106.062C195.312 104.412 195.312 102.762 195.312 101.062C196.633 102.052 197.952 103.043 199.312 104.062C198.652 101.753 197.993 99.4425 197.312 97.0625Z" fill="#1F1F1F"/>
<path d="M36.3125 58.0625C36.6425 58.7225 36.9725 59.3825 37.3125 60.0625C37.9725 60.3925 38.6325 60.7225 39.3125 61.0625C37.858 62.0681 36.3988 63.0668 34.9375 64.0625C33.7193 64.8978 33.7193 64.8978 32.4766 65.75C30.3125 67.0625 30.3125 67.0625 28.3125 67.0625C28.3125 66.4025 28.3125 65.7425 28.3125 65.0625C27.6525 65.0625 26.9925 65.0625 26.3125 65.0625C26.6425 66.0525 26.9725 67.0425 27.3125 68.0625C26.6525 68.0625 25.9925 68.0625 25.3125 68.0625C25.3125 67.4025 25.3125 66.7425 25.3125 66.0625C23.3325 66.3925 21.3525 66.7225 19.3125 67.0625C21.8047 65.401 23.9595 64.2842 26.6875 63.125C30.0633 61.6546 33.2109 60.0636 36.3125 58.0625Z" fill="#343434"/>
<path d="M166.312 36.0624C177.171 35.8024 187.57 36.4623 198.312 38.0624C198.312 38.3924 198.312 38.7224 198.312 39.0624C188.964 39.7267 179.691 40.2222 170.312 40.0624C171.633 39.4024 172.952 38.7424 174.312 38.0624C171.672 37.7324 169.033 37.4024 166.312 37.0624C166.312 36.7324 166.312 36.4024 166.312 36.0624Z" fill="#393939"/>
<path d="M219.312 101.062C219.973 101.062 220.632 101.062 221.312 101.062C222.963 106.673 224.613 112.282 226.312 118.062C226.972 118.062 227.632 118.062 228.312 118.062C228.972 120.372 229.632 122.682 230.312 125.062C229.653 124.733 228.993 124.403 228.312 124.062C228.312 123.403 228.312 122.743 228.312 122.062C227.323 122.392 226.332 122.722 225.312 123.062C225.047 122.159 224.781 121.255 224.508 120.324C224.155 119.145 223.801 117.965 223.438 116.75C223.089 115.578 222.741 114.406 222.383 113.199C221.425 109.953 221.425 109.953 219.312 107.062C219.188 103.875 219.188 103.875 219.312 101.062Z" fill="#31312E"/>
<path d="M88.3125 99.0625C87.9825 100.053 87.6525 101.043 87.3125 102.062C86.3225 102.392 85.3325 102.723 84.3125 103.062C84.9725 103.722 85.6325 104.383 86.3125 105.062C79.7125 105.062 73.1125 105.062 66.3125 105.062C70.1277 103.155 73.7817 102.003 77.875 100.938C78.5472 100.756 79.2195 100.574 79.9121 100.387C82.7998 99.6239 85.3122 99.0625 88.3125 99.0625Z" fill="#232322"/>
<path d="M255.312 27.0625C260.113 30.3856 260.113 30.3856 261.125 33.8125C261.187 34.555 261.249 35.2975 261.312 36.0625C259.993 36.0625 258.672 36.0625 257.312 36.0625C256.653 34.7425 255.992 33.4225 255.312 32.0625C254.983 33.3825 254.653 34.7025 254.312 36.0625C253.322 35.7325 252.332 35.4025 251.312 35.0625C250.982 33.0825 250.653 31.1025 250.312 29.0625C251.962 28.4025 253.612 27.7425 255.312 27.0625Z" fill="#0C1109"/>
<path d="M97.3125 29.0625C99.1875 29.375 99.1875 29.375 101.312 30.0625C101.972 31.0525 102.632 32.0425 103.312 33.0625C102.744 33.1141 102.176 33.1656 101.59 33.2188C95.2312 34.1529 92.4634 36.3668 88.5273 41.3828C88.1264 41.9371 87.7255 42.4914 87.3125 43.0625C85.9925 42.7325 84.6725 42.4025 83.3125 42.0625C84.6022 40.6869 85.9394 39.3548 87.3125 38.0625C87.9725 38.0625 88.6325 38.0625 89.3125 38.0625C89.3125 37.4025 89.3125 36.7425 89.3125 36.0625C93.6654 32.0625 93.6654 32.0625 97.3125 32.0625C97.3125 31.0725 97.3125 30.0825 97.3125 29.0625Z" fill="#1B1B1B"/>
<path d="M52.3125 97.0625C52.6425 97.7225 52.9725 98.3825 53.3125 99.0625C54.3025 99.3925 55.2925 99.7225 56.3125 100.062C55.3225 101.548 55.3225 101.548 54.3125 103.062C54.6209 105.215 54.6209 105.215 55.3125 107.062C54.6525 107.062 53.9925 107.062 53.3125 107.062C52.3225 108.547 52.3225 108.547 51.3125 110.062C50.6525 110.062 49.9925 110.062 49.3125 110.062C49.7919 105.348 50.2808 101.397 52.3125 97.0625ZM56.3125 97.0625C57.3025 97.5575 57.3025 97.5575 58.3125 98.0625C57.3225 98.5575 57.3225 98.5575 56.3125 99.0625C56.3125 98.4025 56.3125 97.7425 56.3125 97.0625Z" fill="#0C0C0C"/>
<path d="M190.312 106.062C190.972 106.062 191.633 106.062 192.312 106.062C192.312 106.723 192.312 107.382 192.312 108.062C192.972 108.392 193.632 108.723 194.312 109.062C192.312 112.062 190.312 115.062 188.312 118.062C187.983 117.403 187.652 116.743 187.312 116.062C186.322 116.557 186.322 116.557 185.312 117.062C187.188 110.312 187.188 110.312 188.312 108.062C188.973 108.062 189.633 108.062 190.312 108.062C190.312 107.402 190.312 106.743 190.312 106.062Z" fill="#222322"/>
<path d="M172.312 128.062C173.312 131.062 173.312 131.062 173.312 133.062C173.972 133.392 174.633 133.722 175.312 134.062C174.737 136.448 174.09 138.729 173.312 141.062C172.323 140.733 171.332 140.403 170.312 140.062C170.312 139.403 170.312 138.743 170.312 138.062C169.652 137.733 168.993 137.403 168.312 137.062C168.643 134.753 168.972 132.443 169.312 130.062C170.303 130.062 171.293 130.062 172.312 130.062C172.312 129.402 172.312 128.743 172.312 128.062Z" fill="#0C0B0B"/>
<path d="M151.312 90.0625C158.548 90.6655 165.306 92.1776 172.312 94.0625C172.312 94.3925 172.312 94.7225 172.312 95.0625C165.906 95.271 160.383 95.2208 154.312 93.0625C154.312 92.4025 154.312 91.7425 154.312 91.0625C153.322 90.7325 152.332 90.4025 151.312 90.0625Z" fill="#131313"/>
<path d="M5.37891 67.9648C6.61447 67.9822 6.61447 67.9822 7.875 68C8.70129 68.009 9.52758 68.018 10.3789 68.0273C11.017 68.0389 11.6551 68.0505 12.3125 68.0625C12.3125 68.7225 12.3125 69.3825 12.3125 70.0625C13.9625 70.0625 15.6125 70.0625 17.3125 70.0625C13.4028 72.669 10.313 72.4772 5.71094 72.7188C4.52371 72.8889 4.52371 72.8889 3.3125 73.0625C2.9825 73.7225 2.6525 74.3825 2.3125 75.0625C3.1875 71.1875 3.1875 71.1875 4.3125 70.0625C3.6525 69.7325 2.9925 69.4025 2.3125 69.0625C3.3125 68.0625 3.3125 68.0625 5.37891 67.9648Z" fill="#303030"/>
<path d="M254.312 21.0625C259.542 23.4068 259.542 23.4068 261.312 26.0625C261.565 28.7807 261.447 31.3216 261.312 34.0625C260.983 33.0725 260.653 32.0825 260.312 31.0625C259.323 30.7325 258.332 30.4025 257.312 30.0625C254.847 26.6838 254.312 25.3569 254.312 21.0625Z" fill="#20201F"/>
<path d="M120.312 102.062C120.973 103.383 121.632 104.702 122.312 106.062C123.302 105.733 124.293 105.402 125.312 105.062C124.983 106.713 124.653 108.363 124.312 110.062C123.653 110.062 122.993 110.062 122.312 110.062C121.652 113.363 120.993 116.663 120.312 120.062C119.982 120.062 119.653 120.062 119.312 120.062C119.285 117.813 119.266 115.563 119.25 113.312C119.238 112.06 119.227 110.807 119.215 109.516C119.292 106.777 119.485 104.644 120.312 102.062Z" fill="#2A2829"/>
<path d="M76.3125 51.0625C77.5187 54.6812 77.4207 57.9876 77.375 61.75C77.3705 62.4519 77.366 63.1538 77.3613 63.877C77.3496 65.6055 77.3316 67.334 77.3125 69.0625C76.3225 68.7325 75.3325 68.4025 74.3125 68.0625C74.2581 66.167 74.2195 64.271 74.1875 62.375C74.1643 61.3193 74.1411 60.2635 74.1172 59.1758C74.3139 56.04 74.9819 53.886 76.3125 51.0625Z" fill="#070707"/>
<path d="M226.312 122.062C226.973 122.062 227.632 122.062 228.312 122.062C230.935 125.268 231.344 126.683 231 130.875C230.773 131.927 230.546 132.979 230.312 134.062C229.653 134.062 228.993 134.062 228.312 134.062C226.827 128.617 226.827 128.617 225.312 123.062C225.643 122.732 225.972 122.403 226.312 122.062Z" fill="#1B1B1A"/>
<path d="M57.3125 89.0625C57.9725 89.3925 58.6325 89.7225 59.3125 90.0625C56.9091 92.8264 56.1499 93.1032 52.3125 94.0625C51.6525 96.7025 50.9925 99.3425 50.3125 102.062C49.3225 102.062 48.3325 102.062 47.3125 102.062C47.6217 98.6614 47.902 96.5756 50.0625 93.875C52.3988 91.993 54.6267 90.4054 57.3125 89.0625Z" fill="#2D2D2D"/>
<path d="M140.312 134.062C142.622 134.393 144.932 134.722 147.312 135.062C146.312 137.062 146.312 137.062 145.312 138.062C143.313 138.103 141.312 138.105 139.312 138.062C139.642 139.383 139.972 140.702 140.312 142.062C138.003 141.403 135.693 140.742 133.312 140.062C133.643 139.073 133.972 138.082 134.312 137.062C137.283 137.062 140.253 137.062 143.312 137.062C143.312 136.402 143.312 135.743 143.312 135.062C142.323 134.732 141.333 134.403 140.312 134.062Z" fill="#333333"/>
<path d="M176.312 95.0625C180.932 95.0625 185.552 95.0625 190.312 95.0625C190.312 95.3925 190.312 95.7225 190.312 96.0625C189.614 96.1837 188.915 96.3048 188.195 96.4297C186.83 96.6811 186.83 96.6811 185.438 96.9375C184.533 97.0999 183.628 97.2623 182.695 97.4297C180.147 97.8929 180.147 97.8929 178.312 100.062C177.67 102.131 177.67 102.131 177.312 104.062C176.652 104.062 175.993 104.062 175.312 104.062C175.643 101.092 175.972 98.1225 176.312 95.0625Z" fill="#0C0C0B"/>
<path d="M101.312 116.062C101.643 116.062 101.972 116.062 102.312 116.062C102.312 118.043 102.312 120.023 102.312 122.062C102.973 122.062 103.632 122.062 104.312 122.062C104.312 120.742 104.312 119.423 104.312 118.062C104.973 118.062 105.633 118.062 106.312 118.062C108.312 121.062 108.312 121.062 108.312 125.062C106.5 125.75 106.5 125.75 104.312 126.062C102.562 125.062 102.562 125.062 101.312 123.062C101.125 119.375 101.125 119.375 101.312 116.062Z" fill="#262626"/>
<path d="M127.313 90.0625C127.643 90.0625 127.973 90.0625 128.313 90.0625C127.97 96.0476 127.49 100.814 124.313 106.062C123.983 106.062 123.653 106.062 123.313 106.062C122.94 100.962 124.148 97.6531 126.313 93.0625C126.643 92.0725 126.973 91.0825 127.313 90.0625Z" fill="#0F0F0F"/>
<path d="M254.312 31.0625C255.303 32.0525 256.293 33.0425 257.312 34.0625C257.972 33.7325 258.633 33.4025 259.312 33.0625C259.312 34.0525 259.312 35.0425 259.312 36.0625C260.302 35.7325 261.293 35.4025 262.312 35.0625C262.642 36.0525 262.972 37.0425 263.312 38.0625C257.897 39.2933 257.897 39.2933 254.938 38.125C254.401 37.7744 253.865 37.4237 253.312 37.0625C253.643 35.0825 253.972 33.1025 254.312 31.0625Z" fill="#3F4F34"/>
<path d="M92.3125 94.0625C95.3125 95.0625 95.3125 95.0625 95.3125 95.0625L92.3125 94.0625ZM91.3125 95.0625C92.3573 98.1969 92.4657 99.0835 91.3125 102.062C88.0846 104.214 87.0285 104.263 83.3125 104.062C84.3125 102.062 84.3125 102.062 87.3125 101.062C88.9572 98.5992 88.9572 98.5992 90.3125 96.0625C90.6425 95.7325 90.9725 95.4025 91.3125 95.0625Z" fill="#1A1A1A"/>
<path d="M86.3125 37.0625C86.9725 37.3925 87.6325 37.7225 88.3125 38.0625C85.6725 41.0325 83.0325 44.0025 80.3125 47.0625C79.9825 46.4025 79.6525 45.7425 79.3125 45.0625C79.6425 44.0725 79.9725 43.0825 80.3125 42.0625C78.9925 41.7325 77.6725 41.4025 76.3125 41.0625C76.9506 40.8575 77.5887 40.6526 78.2461 40.4414C79.0724 40.172 79.8987 39.9026 80.75 39.625C81.5737 39.3582 82.3974 39.0913 83.2461 38.8164C85.2747 38.2409 85.2747 38.2409 86.3125 37.0625Z" fill="#030303"/>
<path d="M65.3125 83.0625C67.3125 86.0625 67.3125 86.0625 67.1875 88.125C66.3125 90.0625 66.3125 90.0625 64.4375 91.375C62.3125 92.0625 62.3125 92.0625 59.3125 91.0625C59.9725 90.4025 60.6325 89.7425 61.3125 89.0625C60.6525 88.7325 59.9925 88.4025 59.3125 88.0625C60.1169 87.7944 60.9212 87.5262 61.75 87.25C62.5956 86.8581 63.4412 86.4662 64.3125 86.0625C64.6425 85.0725 64.9725 84.0825 65.3125 83.0625Z" fill="#323231"/>
<path d="M76.3125 31.0624C75.9825 32.0524 75.6525 33.0424 75.3125 34.0624C74.3225 34.3924 73.3325 34.7224 72.3125 35.0624C72.3125 34.4024 72.3125 33.7424 72.3125 33.0624C71.3637 33.5781 70.415 34.0937 69.4375 34.6249C68.4062 35.0993 67.375 35.5737 66.3125 36.0624C65.6525 35.7324 64.9925 35.4024 64.3125 35.0624C67.5297 30.2366 70.8324 29.4967 76.3125 31.0624Z" fill="#232323"/>
<path d="M247.5 52.4375C248.428 52.6438 249.356 52.85 250.312 53.0625C250.312 53.7225 250.312 54.3825 250.312 55.0625C251.962 55.0625 253.613 55.0625 255.312 55.0625C255.312 55.3925 255.312 55.7225 255.312 56.0625C250.693 56.0625 246.073 56.0625 241.312 56.0625C241.312 55.4025 241.312 54.7425 241.312 54.0625C244.312 52.0625 244.312 52.0625 247.5 52.4375Z" fill="#080808"/>
<path d="M42.3125 128.062C43.3025 128.393 44.2925 128.722 45.3125 129.062C44.9825 131.043 44.6525 133.023 44.3125 135.062C42.9925 135.392 41.6725 135.722 40.3125 136.062C39.625 134.312 39.625 134.312 39.3125 132.062C40.75 129.812 40.75 129.812 42.3125 128.062Z" fill="#040404"/>
<path d="M218.312 64.0625C219.303 64.3925 220.293 64.7225 221.312 65.0625C221.563 66.4755 221.787 67.8933 222 69.3125C222.128 70.1014 222.255 70.8903 222.387 71.7031C222.312 74.0625 222.312 74.0625 219.312 78.0625C218.982 73.4425 218.653 68.8225 218.312 64.0625Z" fill="#201F1E"/>
<path d="M79.3133 51.0625C79.8758 53 79.8758 53 80.3133 55.0625C79.9833 55.3925 79.6533 55.7225 79.3133 56.0625C79.0814 57.5772 78.9011 59.1 78.7508 60.625C78.667 61.4513 78.5832 62.2776 78.4969 63.1289C78.4363 63.767 78.3757 64.4051 78.3133 65.0625C76.2021 61.2355 75.9137 58.4578 76.3133 54.0625C77.8133 52.125 77.8133 52.125 79.3133 51.0625Z" fill="#252525"/>
<path d="M231.312 14.0625C232.962 14.0625 234.612 14.0625 236.312 14.0625C235.562 19.8125 235.562 19.8125 233.312 22.0625C231.312 16.3125 231.312 16.3125 231.312 14.0625Z" fill="#150F0D"/>
<path d="M231.312 0.187632C233.312 1.06263 233.312 1.06263 234.562 3.62513C234.81 4.42951 235.057 5.23388 235.312 6.06263C234.323 6.06263 233.332 6.06263 232.312 6.06263C231.983 5.40263 231.653 4.74263 231.312 4.06263C229.662 4.06263 228.013 4.06263 226.312 4.06263C226.643 3.07263 226.972 2.08263 227.312 1.06263C229.312 0.0626319 229.312 0.0626319 231.312 0.187632Z" fill="#353435"/>
<path d="M232.312 132.062C234.751 134.501 235.935 136.915 237.312 140.062C236.983 140.722 236.653 141.382 236.312 142.062C235.323 141.403 234.332 140.743 233.312 140.062C232.983 140.722 232.652 141.382 232.312 142.062C232.168 141.444 232.024 140.825 231.875 140.188C231.381 138.03 231.381 138.03 230.312 136.062C230.973 136.062 231.632 136.062 232.312 136.062C232.312 134.742 232.312 133.423 232.312 132.062Z" fill="#3B3B3B"/>
<path d="M74.3125 70.0625C74.9725 70.7225 75.6325 71.3825 76.3125 72.0625C75.9457 74.997 75.4481 75.9269 73.3125 78.0625C72.3225 77.4025 71.3325 76.7425 70.3125 76.0625C71.4642 73.5945 72.3603 72.0147 74.3125 70.0625Z" fill="#272727"/>
<path d="M25.3125 66.0625C24.9825 67.3825 24.6525 68.7025 24.3125 70.0625C19.3125 69.0625 19.3125 69.0625 14.3125 68.0625C14.3125 67.7325 14.3125 67.4025 14.3125 67.0625C15.7707 66.8945 17.229 66.7281 18.6875 66.5625C19.4996 66.4697 20.3117 66.3769 21.1484 66.2812C23.3125 66.0625 23.3125 66.0625 25.3125 66.0625Z" fill="#232323"/>
<path d="M211.312 37.0625C208.762 39.417 207.602 40.0458 204.062 40.25C203.155 40.1881 202.247 40.1263 201.312 40.0625C201.312 39.4025 201.312 38.7425 201.312 38.0625C207.938 35.9375 207.938 35.9375 211.312 37.0625ZM200.312 40.0625C200.642 40.7225 200.973 41.3825 201.312 42.0625C200.322 41.7325 199.332 41.4025 198.312 41.0625C198.973 40.7325 199.632 40.4025 200.312 40.0625Z" fill="#070707"/>
<path d="M235.312 6.0625C235.973 7.3825 236.633 8.7025 237.312 10.0625C236.653 10.0625 235.993 10.0625 235.312 10.0625C235.189 10.7019 235.065 11.3412 234.938 12C234.731 12.6806 234.525 13.3612 234.312 14.0625C233.322 14.5575 233.322 14.5575 232.312 15.0625C232.643 12.7525 232.972 10.4425 233.312 8.0625C233.973 8.0625 234.632 8.0625 235.312 8.0625C235.312 7.4025 235.312 6.7425 235.312 6.0625Z" fill="#282321"/>
<path d="M39.3109 122.062C40.3009 122.062 41.2909 122.062 42.3109 122.062C42.6409 122.723 42.9709 123.382 43.3109 124.062C42.2953 127.109 41.1032 129.374 39.3109 132.062C38.5616 128.399 38.0729 125.639 39.3109 122.062Z" fill="#1E1E1E"/>
<path d="M66.3125 106.062C66.3125 106.723 66.3125 107.382 66.3125 108.062C65.57 108.331 64.8275 108.599 64.0625 108.875C61.4461 110.005 59.5106 111.271 57.3125 113.062C57.5 111.25 57.5 111.25 58.3125 109.062C61.2195 106.921 62.6677 106.062 66.3125 106.062Z" fill="#1A1A1A"/>
<path d="M213.312 32.0625C214.302 32.3925 215.293 32.7225 216.312 33.0625C215.653 34.7125 214.992 36.3625 214.312 38.0625C211.838 37.0725 211.838 37.0725 209.312 36.0625C210.633 34.7425 211.952 33.4225 213.312 32.0625Z" fill="#222222"/>
<path d="M185.312 142.062C185.973 142.393 186.632 142.722 187.312 143.062C187.5 145.938 187.5 145.938 187.312 149.062C185.827 150.052 185.827 150.052 184.312 151.062C183.688 149.25 183.688 149.25 183.312 147.062C183.973 146.073 184.632 145.082 185.312 144.062C185.312 143.402 185.312 142.743 185.312 142.062Z" fill="#1E1E1E"/>
<path d="M53.3125 45.0625C53.9725 45.3925 54.6325 45.7225 55.3125 46.0625C53.3325 48.0425 51.3525 50.0225 49.3125 52.0625C47.9925 51.4025 46.6725 50.7425 45.3125 50.0625C48.3125 48.0625 48.3125 48.0625 50.3125 48.0625C51.9376 46.6042 51.9376 46.6042 53.3125 45.0625Z" fill="#2B2B2B"/>
<path d="M223.312 8.0625C223.973 8.0625 224.633 8.0625 225.312 8.0625C223.688 15.8125 223.688 15.8125 220.312 18.0625C221.062 11.4375 221.062 11.4375 223.312 8.0625Z" fill="#181818"/>
<path d="M244.312 0.0625C245.633 0.0625 246.952 0.0625 248.312 0.0625C247.061 2.56607 245.313 4.12683 243.312 6.0625C242.322 5.7325 241.332 5.4025 240.312 5.0625C242.062 2.5625 242.062 2.5625 244.312 0.0625Z" fill="#393939"/>
<path d="M122.312 114.062C122.642 114.062 122.972 114.062 123.312 114.062C123.373 114.677 123.433 115.292 123.496 115.926C123.58 116.734 123.663 117.542 123.75 118.375C123.831 119.176 123.912 119.976 123.996 120.801C124.265 123.223 124.265 123.223 125.312 126.062C124.322 126.062 123.332 126.062 122.312 126.062C120.781 121.978 121.681 118.268 122.312 114.062Z" fill="#383636"/>
<path d="M248.312 147.062C248.973 147.393 249.632 147.722 250.312 148.062C250.312 150.043 250.312 152.023 250.312 154.062C248.992 154.392 247.673 154.722 246.312 155.062C246.973 152.422 247.632 149.783 248.312 147.062Z" fill="#323232"/>
<path d="M168.313 130.062C168.643 130.062 168.973 130.062 169.313 130.062C169.438 136.688 169.438 136.688 168.313 140.062C167.653 140.062 166.993 140.062 166.313 140.062C166.092 136.206 166.709 133.57 168.313 130.062Z" fill="#363434"/>
<path d="M243.312 51.0625C243.972 51.3925 244.633 51.7225 245.312 52.0625C243.332 53.0525 243.332 53.0525 241.312 54.0625C241.642 55.0525 241.973 56.0425 242.312 57.0625C241.322 57.3925 240.332 57.7225 239.312 58.0625C239.312 56.7425 239.312 55.4225 239.312 54.0625C241.312 52.3125 241.312 52.3125 243.312 51.0625Z" fill="#242424"/>
<path d="M248.312 31.0625C249.303 31.0625 250.293 31.0625 251.312 31.0625C251.642 33.3725 251.973 35.6825 252.312 38.0625C250.312 36.8125 250.312 36.8125 248.312 35.0625C248.312 33.7425 248.312 32.4225 248.312 31.0625Z" fill="#6C8451"/>
<path d="M238.312 9.0625C239.303 9.0625 240.293 9.0625 241.312 9.0625C241.972 10.0525 242.633 11.0425 243.312 12.0625C241.332 13.0525 241.332 13.0525 239.312 14.0625C239.312 13.4025 239.312 12.7425 239.312 12.0625C238.652 12.0625 237.993 12.0625 237.312 12.0625C237.643 11.0725 237.972 10.0825 238.312 9.0625Z" fill="#232321"/>
<path d="M50.3125 95.0625C51.3125 98.0625 51.3125 98.0625 50.375 100.25C49.8491 101.147 49.8491 101.147 49.3125 102.062C48.6525 102.062 47.9925 102.062 47.3125 102.062C47.6875 99.125 47.6875 99.125 48.3125 96.0625C48.9725 95.7325 49.6325 95.4025 50.3125 95.0625Z" fill="#373737"/>
<path d="M42.3125 53.0625C43.3025 53.3925 44.2925 53.7225 45.3125 54.0625C42.6725 56.0425 40.0325 58.0225 37.3125 60.0625C38.9299 56.8277 39.7888 55.3568 42.3125 53.0625Z" fill="#161616"/>
</svg>
